<svg width="29" height="29" viewBox="0 0 29 29" fill="none" xmlns="http://www.w3.org/2000/svg">
<path d="M4.23869 2.16948C5.34419 2.16948 6.24599 3.07128 6.24599 4.17668C6.24599 5.28218 5.35389 6.18398 4.23869 6.18398C3.13319 6.18398 2.23139 5.28218 2.23139 4.17668C2.23139 3.07128 3.13319 2.16948 4.23869 2.16948ZM4.10289 8.18158H24.4278C26.5611 8.18158 28.2969 6.44578 28.2969 4.31248V4.04098C28.2969 1.90758 26.5708 0.171875 24.4278 0.171875H4.10289C1.96959 0.171875 0.233887 1.89798 0.233887 4.04098V4.31248C0.233887 6.44578 1.96959 8.18158 4.10289 8.18158Z" fill="#FBFCF8"/>
<path d="M4.23869 12.1862C5.34419 12.1862 6.24599 13.0881 6.24599 14.1935C6.24599 15.299 5.35389 16.2008 4.23869 16.2008C3.13319 16.2008 2.23139 15.299 2.23139 14.1935C2.23139 13.0881 3.13319 12.1862 4.23869 12.1862ZM4.10289 18.2275H24.4278C26.5611 18.2275 28.2969 16.4917 28.2969 14.3584V14.0869C28.2969 11.9535 26.5708 10.2178 24.4278 10.2178H4.10289C1.96959 10.2178 0.233887 11.9535 0.233887 14.0869V14.3584C0.233887 16.4917 1.96959 18.2275 4.10289 18.2275Z" fill="#FBFCF8"/>
<path d="M4.23869 26.2279C3.13319 26.2279 2.23139 25.3261 2.23139 24.2206C2.23139 23.1151 3.13319 22.2133 4.23869 22.2133C5.34419 22.2133 6.24599 23.1151 6.24599 24.2206C6.24599 25.3358 5.34419 26.2279 4.23869 26.2279ZM24.4278 20.2158H4.10289C1.96959 20.2158 0.233887 21.9515 0.233887 24.0848V24.3564C0.233887 26.4897 1.96959 28.2255 4.10289 28.2255H24.4278C26.5611 28.2255 28.2969 26.4897 28.2969 24.3564V24.0848C28.2969 21.9515 26.5611 20.2158 24.4278 20.2158Z" fill="#FBFCF8"/>
</svg>
