<svg width="112" height="77" viewBox="0 0 112 77" fill="none" xmlns="http://www.w3.org/2000/svg">
<path d="M50.6143 1.64663C52.5543 16.5372 43.0653 24.164 45.0338 31.5107C45.3277 32.6073 45.8522 33.6086 46.5478 34.5036C46.3419 33.9316 46.2233 33.3294 46.2099 32.7019C46.1256 28.7518 50.2534 25.3174 53.2042 19.7893C54.1278 22.2933 55.1099 25.2909 54.5456 29.1008C59.5851 27.6377 63.4139 23.7741 64.25 19.6792C67.2131 24.9822 67.5887 31.007 64.3201 35.4369C64.3096 35.1877 64.2685 34.9406 64.1976 34.7013C63.6374 32.8224 61.0224 31.7795 58.3769 32.4568C53.4807 33.7108 52.8027 40.3571 59.7082 39.2808C59.7434 39.2753 59.7799 39.2692 59.8157 39.2634C61.7733 38.9653 63.5898 38.2354 65.0133 37.0162C76.9023 26.8343 67.0852 8.29391 50.6143 1.64663Z" fill="#AB3E3E"/>
<path d="M0.634766 52.8613L0.830078 51.2012H5.37109C6.9401 51.2012 8.08594 51.2956 8.80859 51.4844C9.51823 51.6797 10.026 51.9108 10.332 52.1777C11.0156 52.7637 11.3574 53.6654 11.3574 54.8828C11.3574 55.7878 10.8691 56.6471 9.89258 57.4609C11.1361 58.0859 11.7578 59.2513 11.7578 60.957C11.7578 62.2917 11.3184 63.2845 10.4395 63.9355C9.56706 64.5801 8.26497 64.9349 6.5332 65H0.830078L0.634766 63.3398C0.810547 63.112 1.17839 62.8906 1.73828 62.6758V53.5352C1.1849 53.3398 0.817057 53.1152 0.634766 52.8613ZM5.6543 53.3789H4.61914V56.8359H6.25C6.93359 56.8359 7.45443 56.6634 7.8125 56.3184C8.17708 55.9733 8.35938 55.5501 8.35938 55.0488C8.35938 54.5475 8.23242 54.1699 7.97852 53.916C7.72461 53.6621 7.42839 53.5091 7.08984 53.457C6.75781 53.4049 6.2793 53.3789 5.6543 53.3789ZM6.39648 59.0234H4.61914V62.8223H5.99609C6.90104 62.8223 7.58464 62.6888 8.04688 62.4219C8.51562 62.1484 8.75 61.6667 8.75 60.9766C8.75 60.2799 8.56771 59.7819 8.20312 59.4824C7.83854 59.1764 7.23633 59.0234 6.39648 59.0234ZM18.8574 57.4609C17.8548 57.4609 17.1549 57.653 16.7578 58.0371V62.6172C17.8516 62.8255 18.5938 63.1055 18.9844 63.457L18.7793 65H13.0566L12.8613 63.457C13.0436 63.2031 13.4115 62.9785 13.9648 62.7832V57.2168C13.4896 57.0605 13.1217 56.8359 12.8613 56.543L13.0566 55C13.7728 54.8372 14.4336 54.7559 15.0391 54.7559C15.332 54.7559 15.599 54.7624 15.8398 54.7754C16.0872 54.7819 16.3086 54.7917 16.5039 54.8047V56.0645C16.8099 55.6999 17.2038 55.4004 17.6855 55.166C18.0892 54.9772 18.4928 54.8665 18.8965 54.834C19.3001 54.8014 19.6029 54.8307 19.8047 54.9219L19.7461 57.5195C19.4857 57.4805 19.1895 57.4609 18.8574 57.4609ZM20.6543 56.543L20.8496 55C21.6048 54.8242 22.3014 54.7363 22.9395 54.7363C23.2585 54.7363 23.5514 54.7428 23.8184 54.7559C24.0853 54.7624 24.3294 54.7786 24.5508 54.8047V62.7832C25.0716 62.9785 25.4395 63.2031 25.6543 63.457L25.459 65H20.8496L20.6543 63.457C20.8366 63.2031 21.2044 62.9785 21.7578 62.7832V57.2168C21.2826 57.0605 20.9147 56.8359 20.6543 56.543ZM31.0547 67.1191C32.2396 67.1191 32.832 66.4062 32.832 64.9805V64.1016C32.181 64.4987 31.3607 64.6973 30.3711 64.6973C29.1211 64.6973 28.1576 64.3327 27.4805 63.6035C26.8099 62.8678 26.4746 61.6471 26.4746 59.9414C26.4746 56.543 28.0339 54.8438 31.1523 54.8438C31.9466 54.8438 32.6953 55.0163 33.3984 55.3613C33.5221 55.1204 33.7207 55 33.9941 55H35.6348V64.8438C35.6348 66.3086 35.2702 67.3926 34.541 68.0957C33.8184 68.8053 32.6953 69.1602 31.1719 69.1602C30.638 69.1602 30.0846 69.1178 29.5117 69.0332C28.9453 68.9486 28.418 68.8314 27.9297 68.6816C27.4414 68.5319 27.0508 68.3659 26.7578 68.1836C26.7513 68.1185 26.7448 68.0566 26.7383 67.998C26.7383 67.9395 26.7383 67.8809 26.7383 67.8223C26.7383 67.0866 26.9108 66.3802 27.2559 65.7031H29.0137C29.1634 65.9831 29.2708 66.3542 29.3359 66.8164C29.8372 67.0182 30.4102 67.1191 31.0547 67.1191ZM29.2383 59.8242C29.2383 60.8138 29.375 61.5104 29.6484 61.9141C29.8372 62.1875 30.1172 62.3665 30.4883 62.4512C30.8594 62.5358 31.2565 62.5358 31.6797 62.4512C32.1094 62.36 32.4935 62.1973 32.832 61.9629V57.2168C32.3047 56.9954 31.7253 56.8848 31.0938 56.8848C29.8568 56.8848 29.2383 57.8646 29.2383 59.8242ZM36.9141 52.3438L37.1094 50.8008C37.8646 50.625 38.5612 50.5371 39.1992 50.5371C39.8372 50.5371 40.3743 50.5566 40.8105 50.5957V55.5957C41.1361 55.3874 41.5625 55.2116 42.0898 55.0684C42.6237 54.9186 43.099 54.8438 43.5156 54.8438C44.8372 54.8438 45.7487 55.1628 46.25 55.8008C46.7578 56.4388 47.0117 57.4121 47.0117 58.7207V62.7832C47.5326 62.9785 47.9004 63.2031 48.1152 63.457L47.9102 65H43.3105L43.1152 63.457C43.2975 63.2031 43.6654 62.9785 44.2188 62.7832V58.8184C44.2188 58.0957 44.1016 57.6139 43.8672 57.373C43.6849 57.1777 43.4147 57.0605 43.0566 57.0215C42.7051 56.9759 42.3275 57.0052 41.9238 57.1094C41.5202 57.2135 41.1491 57.3893 40.8105 57.6367V62.7832C41.3314 62.9785 41.6992 63.2031 41.9141 63.457L41.7188 65H37.1094L36.9141 63.457C37.0964 63.2031 37.4642 62.9785 38.0176 62.7832V53.0176C37.5423 52.8613 37.1745 52.6367 36.9141 52.3438ZM50.9961 52.4805H52.4512V55H55.3125V56.6797H52.4512V61.7383C52.4512 62.1745 52.513 62.4837 52.6367 62.666C52.7279 62.8092 52.8971 62.9004 53.1445 62.9395C53.3984 62.972 53.6882 62.9622 54.0137 62.9102C54.3392 62.8581 54.6517 62.7734 54.9512 62.6562L55.5566 64.2188C54.528 64.7396 53.4766 65 52.4023 65C51.3281 65 50.6022 64.7721 50.2246 64.3164C49.847 63.8542 49.6582 63.1836 49.6582 62.3047V56.6797H48.7598L48.5352 55.459C48.75 55.2051 49.1895 54.9512 49.8535 54.6973C50.0228 53.597 50.4036 52.8581 50.9961 52.4805ZM69.3555 62.6562V57.4609C69.3555 56.9271 69.4043 56.1003 69.502 54.9805L69.541 54.502L69.3359 54.4824C69.1862 55.0488 69.043 55.5566 68.9062 56.0059C68.7695 56.4551 68.6458 56.8457 68.5352 57.1777L65.8789 65H63.2227L60.4199 57.1777C60.2962 56.8783 60.1758 56.543 60.0586 56.1719C59.9479 55.7943 59.8405 55.3841 59.7363 54.9414L59.6191 54.4824L59.4141 54.502C59.4792 55.0944 59.5247 55.638 59.5508 56.1328C59.5833 56.6211 59.5996 57.0638 59.5996 57.4609V62.7246C60.0944 62.9069 60.459 63.151 60.6934 63.457L60.498 65H56.582L56.377 63.457C56.6243 63.151 56.9922 62.9069 57.4805 62.7246V53.4766C56.9336 53.2812 56.5527 53.0371 56.3379 52.7441L56.5332 51.2012H61.0938L64.0137 59.2578C64.2025 59.694 64.3555 60.1172 64.4727 60.5273C64.5964 60.931 64.6842 61.3151 64.7363 61.6797L64.7949 62.0215H65.0781C65.1237 61.2142 65.3646 60.293 65.8008 59.2578L68.5742 51.2012H73.0566L73.2617 52.7441C73.0469 53.0371 72.666 53.2812 72.1191 53.4766V62.6367C72.64 62.8451 73.0078 63.0794 73.2227 63.3398L73.0176 65H68.457L68.2617 63.3594C68.4635 63.099 68.8281 62.8646 69.3555 62.6562ZM74.4434 56.543L74.6387 55C75.3939 54.8242 76.0905 54.7363 76.7285 54.7363C77.0475 54.7363 77.3405 54.7428 77.6074 54.7559C77.8743 54.7624 78.1185 54.7786 78.3398 54.8047V62.7832C78.8607 62.9785 79.2285 63.2031 79.4434 63.457L79.248 65H74.6387L74.4434 63.457C74.6257 63.2031 74.9935 62.9785 75.5469 62.7832V57.2168C75.0716 57.0605 74.7038 56.8359 74.4434 56.543ZM80.2441 56.543L80.4395 55C81.1556 54.8372 81.8164 54.7559 82.4219 54.7559C82.7148 54.7559 82.9818 54.7624 83.2227 54.7754C83.4701 54.7819 83.6914 54.7917 83.8867 54.8047V55.8008C84.2188 55.5208 84.6615 55.293 85.2148 55.1172C85.7682 54.9349 86.2988 54.8438 86.8066 54.8438C87.679 54.8438 88.3724 54.9772 88.8867 55.2441C89.401 55.5046 89.7721 55.9342 90 56.5332C90.2279 57.1322 90.3418 57.9329 90.3418 58.9355V62.7832C90.8626 62.9785 91.2305 63.2031 91.4453 63.457L91.2402 65H86.6406L86.4453 63.457C86.6276 63.2031 86.9954 62.9785 87.5488 62.7832V58.8184C87.5488 58.0957 87.4316 57.6139 87.1973 57.373C87.015 57.1777 86.7513 57.0605 86.4062 57.0215C86.0612 56.9759 85.6868 57.0052 85.2832 57.1094C84.8796 57.2135 84.4987 57.3893 84.1406 57.6367V62.7832C84.6615 62.9785 85.0293 63.2031 85.2441 63.457L85.0488 65H80.4395L80.2441 63.457C80.4264 63.2031 80.7943 62.9785 81.3477 62.7832V57.2168C80.8724 57.0605 80.5046 56.8359 80.2441 56.543ZM97.1387 52.3438L97.334 50.8008C98.0957 50.625 98.8249 50.5371 99.5215 50.5371C100.212 50.5371 100.804 50.5566 101.299 50.5957V62.5977C101.709 62.6693 102.077 62.7832 102.402 62.9395V64.5215C101.595 64.9447 100.579 65.1562 99.3555 65.1562C99.2253 65.0911 99.0951 64.974 98.9648 64.8047C98.8411 64.6289 98.7728 64.4596 98.7598 64.2969C98.4668 64.5378 98.0859 64.7428 97.6172 64.9121C97.1484 65.0749 96.6895 65.1562 96.2402 65.1562C94.8014 65.1562 93.7565 64.7689 93.1055 63.9941C92.4609 63.2129 92.1387 61.9336 92.1387 60.1562C92.1387 58.1445 92.6335 56.7318 93.623 55.918C94.4954 55.2018 95.5599 54.8438 96.8164 54.8438C97.3633 54.8438 97.9232 54.9089 98.4961 55.0391V53.0566C97.8906 52.8939 97.4382 52.6562 97.1387 52.3438ZM96.6602 63.1152C97.4284 63.1152 98.0404 62.8906 98.4961 62.4414V57.0801C97.9362 56.9499 97.3568 56.8848 96.7578 56.8848C96.1458 56.8848 95.7031 57.1517 95.4297 57.6855C95.1562 58.2194 95.0195 59.0267 95.0195 60.1074C95.0195 61.1816 95.153 61.9531 95.4199 62.4219C95.6868 62.8841 96.1003 63.1152 96.6602 63.1152ZM107.227 56.6406C106.348 56.6406 105.908 56.901 105.908 57.4219C105.908 57.9167 106.37 58.2812 107.295 58.5156L108.867 58.9355C110.495 59.3652 111.309 60.306 111.309 61.7578C111.309 62.7539 110.96 63.571 110.264 64.209C109.912 64.5215 109.44 64.7559 108.848 64.9121C108.255 65.0618 107.617 65.1432 106.934 65.1562C106.257 65.1693 105.599 65.1204 104.961 65.0098C104.323 64.8991 103.786 64.7363 103.35 64.5215C103.343 64.4499 103.337 64.3783 103.33 64.3066C103.33 64.2285 103.33 64.1536 103.33 64.082C103.33 63.3464 103.477 62.6855 103.77 62.0996H105.43C105.612 62.4316 105.726 62.7637 105.771 63.0957C106.025 63.1803 106.406 63.2227 106.914 63.2227C108.086 63.2227 108.672 62.8874 108.672 62.2168C108.672 62.0085 108.594 61.8327 108.438 61.6895C108.268 61.5527 107.952 61.416 107.49 61.2793L105.908 60.8203C105.094 60.5924 104.46 60.2572 104.004 59.8145C103.555 59.3652 103.33 58.7044 103.33 57.832C103.33 56.9531 103.685 56.237 104.395 55.6836C104.746 55.4036 105.186 55.1953 105.713 55.0586C106.247 54.9219 106.816 54.8503 107.422 54.8438C108.027 54.8307 108.62 54.8763 109.199 54.9805C109.779 55.0781 110.296 55.2246 110.752 55.4199C110.758 55.485 110.762 55.5501 110.762 55.6152C110.768 55.6803 110.771 55.7487 110.771 55.8203C110.771 56.5039 110.625 57.1452 110.332 57.7441H108.691C108.509 57.4251 108.395 57.1029 108.35 56.7773C107.965 56.6862 107.591 56.6406 107.227 56.6406Z" fill="black"/>
</svg>
