<svg width="65" height="34" viewBox="0 0 65 34" fill="none" xmlns="http://www.w3.org/2000/svg">
<path d="M1 20V18.68C1.30667 18.6667 1.56 18.6267 1.76 18.56C1.97333 18.4933 2.13333 18.34 2.24 18.1C2.36 17.86 2.42 17.4733 2.42 16.94V9.28C2.42 8.92 2.42667 8.57333 2.44 8.24C2.46667 7.90667 2.48667 7.65333 2.5 7.48C2.28667 7.49333 2.02 7.50667 1.7 7.52C1.38 7.52 1.14667 7.52667 1 7.54V6H11L11.12 9.88H9.8C9.8 9.14667 9.67333 8.59333 9.42 8.22C9.16667 7.84667 8.85333 7.6 8.48 7.48C8.10667 7.34667 7.74 7.28667 7.38 7.3L6.66 7.32C6.38 7.32 6.14 7.36 5.94 7.44C5.74 7.50667 5.58667 7.66667 5.48 7.92C5.37333 8.16 5.32 8.54 5.32 9.06V12.54H7.38L7.3 10.82H8.84V15.68H7.52C7.52 15.12 7.43333 14.7133 7.26 14.46C7.08667 14.2067 6.84667 14.0533 6.54 14C6.24667 13.9333 5.92 13.9067 5.56 13.92H5.32V16.72C5.32 17.08 5.31333 17.4267 5.3 17.76C5.28667 18.0933 5.26667 18.3467 5.24 18.52C5.38667 18.5067 5.58 18.5 5.82 18.5C6.06 18.4867 6.29333 18.48 6.52 18.48C6.76 18.4667 6.92667 18.46 7.02 18.46V20H1ZM16.21 20.32C15.41 20.32 14.7633 20.1667 14.27 19.86C13.79 19.5533 13.4367 19.0733 13.21 18.42C12.9967 17.7667 12.89 16.9267 12.89 15.9V13.6C12.89 13.36 12.8967 13.0867 12.91 12.78C12.9233 12.46 12.9367 12.1533 12.95 11.86C12.7367 11.8733 12.4833 11.8867 12.19 11.9C11.91 11.9 11.6967 11.9067 11.55 11.92V10.4H11.75C12.5767 10.4 13.23 10.3333 13.71 10.2C14.19 10.0667 14.4967 9.93333 14.63 9.8H15.73V15.92C15.73 16.7867 15.8433 17.4333 16.07 17.86C16.2967 18.2733 16.6567 18.48 17.15 18.48C17.4967 18.48 17.8433 18.3867 18.19 18.2C18.55 18 18.8433 17.7733 19.07 17.52V13.6C19.07 13.36 19.0767 13.0867 19.09 12.78C19.1033 12.46 19.1233 12.1533 19.15 11.86C18.9367 11.8733 18.6833 11.8867 18.39 11.9C18.11 11.9 17.8967 11.9067 17.75 11.92V10.4H18.23C18.8567 10.4 19.41 10.3333 19.89 10.2C20.37 10.0533 20.6767 9.92 20.81 9.8H21.91V16.78C21.91 16.9667 21.9033 17.2333 21.89 17.58C21.8767 17.9133 21.8567 18.2333 21.83 18.54C22.0433 18.5133 22.2767 18.5 22.53 18.5C22.7967 18.4867 22.9967 18.48 23.13 18.48V20H19.33C19.3167 19.8267 19.2967 19.6533 19.27 19.48C19.2567 19.3067 19.2367 19.1333 19.21 18.96C18.7967 19.3067 18.35 19.62 17.87 19.9C17.4033 20.18 16.85 20.32 16.21 20.32ZM28.3152 20.32C27.9152 20.32 27.5285 20.2733 27.1552 20.18C26.7952 20.0867 26.4618 19.9133 26.1552 19.66C25.8618 19.3933 25.6285 19.0067 25.4552 18.5C25.2818 17.9933 25.1952 17.32 25.1952 16.48L25.2352 11.66H23.8752V10C24.2885 9.98667 24.6885 9.84667 25.0752 9.58C25.4618 9.31333 25.7885 8.96667 26.0552 8.54C26.3352 8.11333 26.5218 7.66667 26.6152 7.2H28.0952L28.0752 10H30.6152V11.54L28.0752 11.6L28.0552 16.52C28.0552 16.8267 28.0818 17.1333 28.1352 17.44C28.2018 17.7333 28.3218 17.98 28.4952 18.18C28.6685 18.3667 28.9218 18.46 29.2552 18.46C29.4418 18.46 29.6952 18.3933 30.0152 18.26C30.3485 18.1267 30.7018 17.7933 31.0752 17.26L32.0352 18.16C31.6752 18.6933 31.3018 19.1067 30.9152 19.4C30.5285 19.6933 30.1552 19.9067 29.7952 20.04C29.4485 20.1733 29.1418 20.2533 28.8752 20.28C28.6085 20.3067 28.4218 20.32 28.3152 20.32ZM36.7569 20.32C35.9569 20.32 35.3102 20.1667 34.8169 19.86C34.3369 19.5533 33.9835 19.0733 33.7569 18.42C33.5435 17.7667 33.4369 16.9267 33.4369 15.9V13.6C33.4369 13.36 33.4435 13.0867 33.4569 12.78C33.4702 12.46 33.4835 12.1533 33.4969 11.86C33.2835 11.8733 33.0302 11.8867 32.7369 11.9C32.4569 11.9 32.2435 11.9067 32.0969 11.92V10.4H32.2969C33.1235 10.4 33.7769 10.3333 34.2569 10.2C34.7369 10.0667 35.0435 9.93333 35.1769 9.8H36.2769V15.92C36.2769 16.7867 36.3902 17.4333 36.6169 17.86C36.8435 18.2733 37.2035 18.48 37.6969 18.48C38.0435 18.48 38.3902 18.3867 38.7369 18.2C39.0969 18 39.3902 17.7733 39.6169 17.52V13.6C39.6169 13.36 39.6235 13.0867 39.6369 12.78C39.6502 12.46 39.6702 12.1533 39.6969 11.86C39.4835 11.8733 39.2302 11.8867 38.9369 11.9C38.6569 11.9 38.4435 11.9067 38.2969 11.92V10.4H38.7769C39.4035 10.4 39.9569 10.3333 40.4369 10.2C40.9169 10.0533 41.2235 9.92 41.3569 9.8H42.4569V16.78C42.4569 16.9667 42.4502 17.2333 42.4369 17.58C42.4235 17.9133 42.4035 18.2333 42.3769 18.54C42.5902 18.5133 42.8235 18.5 43.0769 18.5C43.3435 18.4867 43.5435 18.48 43.6769 18.48V20H39.8769C39.8635 19.8267 39.8435 19.6533 39.8169 19.48C39.8035 19.3067 39.7835 19.1333 39.7569 18.96C39.3435 19.3067 38.8969 19.62 38.4169 19.9C37.9502 20.18 37.3969 20.32 36.7569 20.32ZM44.9802 18.7C45.3535 18.7 45.6202 18.6267 45.7802 18.48C45.9402 18.3333 46.0402 18.1267 46.0802 17.86C46.1335 17.58 46.1602 17.2667 46.1602 16.92V13.56C46.1602 13.32 46.1668 13.0533 46.1802 12.76C46.1935 12.4533 46.2135 12.1533 46.2402 11.86C46.0268 11.8733 45.7735 11.8867 45.4802 11.9C45.2002 11.9 44.9868 11.9067 44.8402 11.92V10.4H45.6402C46.1602 10.4 46.6335 10.3333 47.0602 10.2C47.5002 10.0667 47.7868 9.93333 47.9202 9.8H48.9002C48.9268 9.93333 48.9468 10.1867 48.9602 10.56C48.9735 10.92 48.9802 11.24 48.9802 11.52C49.3402 11.08 49.6802 10.7267 50.0002 10.46C50.3202 10.1933 50.6335 10 50.9402 9.88C51.2602 9.74667 51.5802 9.68 51.9002 9.68C52.3668 9.68 52.7735 9.81333 53.1202 10.08C53.4668 10.3333 53.6402 10.7533 53.6402 11.34C53.6402 11.54 53.5935 11.7533 53.5002 11.98C53.4068 12.1933 53.2602 12.3733 53.0602 12.52C52.8602 12.6667 52.5868 12.74 52.2402 12.74C51.9735 12.74 51.7002 12.66 51.4202 12.5C51.1402 12.34 50.9802 12.0333 50.9402 11.58C50.6735 11.58 50.4068 11.6933 50.1402 11.92C49.8735 12.1333 49.6335 12.3933 49.4202 12.7C49.2202 12.9933 49.0802 13.2667 49.0002 13.52V16.78C49.0002 16.9667 48.9935 17.2333 48.9802 17.58C48.9668 17.9133 48.9468 18.2333 48.9202 18.54C49.1335 18.5133 49.3668 18.5 49.6202 18.5C49.8868 18.4867 50.0868 18.48 50.2202 18.48V20H44.9802V18.7ZM59.1733 20.32C58.1999 20.32 57.3399 20.1067 56.5933 19.68C55.8466 19.24 55.2666 18.6267 54.8533 17.84C54.4399 17.04 54.2333 16.1 54.2333 15.02C54.2333 14.0867 54.4399 13.2133 54.8533 12.4C55.2666 11.5867 55.8466 10.9333 56.5933 10.44C57.3533 9.93333 58.2333 9.68 59.2333 9.68C59.7933 9.68 60.3399 9.76 60.8733 9.92C61.4066 10.0667 61.8866 10.3267 62.3133 10.7C62.7533 11.0733 63.0999 11.58 63.3533 12.22C63.6199 12.86 63.7466 13.66 63.7333 14.62L57.1733 14.74C57.1733 15.46 57.2599 16.1067 57.4333 16.68C57.6199 17.2533 57.9199 17.7067 58.3333 18.04C58.7466 18.3733 59.2999 18.54 59.9933 18.54C60.2599 18.54 60.5599 18.4933 60.8933 18.4C61.2399 18.3067 61.5866 18.1533 61.9333 17.94C62.2933 17.7133 62.6266 17.4133 62.9333 17.04L63.8333 17.88C63.3533 18.56 62.8399 19.08 62.2933 19.44C61.7466 19.7867 61.1999 20.02 60.6533 20.14C60.1199 20.26 59.6266 20.32 59.1733 20.32ZM57.2933 13.34H60.9733C60.9599 12.78 60.8799 12.34 60.7333 12.02C60.5999 11.6867 60.4133 11.4467 60.1733 11.3C59.9333 11.1533 59.6533 11.08 59.3333 11.08C58.7466 11.08 58.2866 11.2933 57.9533 11.72C57.6199 12.1333 57.3999 12.6733 57.2933 13.34Z" fill="black"/>
<path d="M37.39 26.17H39.81V26.95L39.27 27.04L39.17 28.84C39.0633 29.0467 38.9133 29.2567 38.72 29.47C38.5267 29.6767 38.34 29.8533 38.16 30H36.11C36.0033 29.9867 35.86 29.9333 35.68 29.84C35.5067 29.7467 35.3267 29.6333 35.14 29.5C34.9533 29.36 34.79 29.2167 34.65 29.07C34.51 28.9167 34.42 28.78 34.38 28.66L34.65 24.18C34.7167 24.0667 34.81 23.9333 34.93 23.78C35.0567 23.62 35.1933 23.4667 35.34 23.32C35.4867 23.1667 35.62 23.04 35.74 22.94C36.2267 22.8467 36.7467 22.8 37.3 22.8C37.86 22.8 38.3833 22.8733 38.87 23.02C38.9633 23.1067 39.0567 23.22 39.15 23.36C39.2433 23.4933 39.3167 23.6133 39.37 23.72L39.23 25.19C39.1167 25.23 38.9667 25.2533 38.78 25.26C38.5933 25.26 38.4333 25.2467 38.3 25.22L38.16 23.97C37.8133 23.9433 37.4433 23.94 37.05 23.96C36.6633 23.9733 36.3067 24.0267 35.98 24.12C35.88 24.44 35.7967 24.82 35.73 25.26C35.67 25.6933 35.63 26.1433 35.61 26.61C35.59 27.07 35.59 27.5067 35.61 27.92C35.6367 28.3333 35.6833 28.68 35.75 28.96L38.13 28.56V27.51L37.24 26.96L37.39 26.17ZM44.0905 28.43C44.1372 28.49 44.1872 28.6067 44.2405 28.78C44.3005 28.9533 44.3272 29.1067 44.3205 29.24C44.0339 29.36 43.7339 29.48 43.4205 29.6C43.1072 29.7133 42.8139 29.82 42.5405 29.92C42.2739 30.02 42.0539 30.1 41.8805 30.16C41.6739 30.1067 41.4572 30.0233 41.2305 29.91C41.0039 29.7967 40.7972 29.6633 40.6105 29.51C40.4239 29.35 40.2905 29.19 40.2105 29.03L40.3505 25.97C40.4439 25.8033 40.5739 25.6367 40.7405 25.47C40.9139 25.2967 41.0839 25.14 41.2505 25C41.6372 24.9133 42.0139 24.86 42.3805 24.84C42.7539 24.82 43.1105 24.8367 43.4505 24.89C43.5105 24.9233 43.5905 24.9967 43.6905 25.11C43.7972 25.2167 43.9005 25.3267 44.0005 25.44C44.1005 25.5533 44.1672 25.6367 44.2005 25.69L44.1605 27.18C43.9872 27.3067 43.7539 27.44 43.4605 27.58C43.1672 27.72 42.8439 27.8567 42.4905 27.99C42.1372 28.1167 41.7839 28.23 41.4305 28.33C41.4372 28.4567 41.4472 28.58 41.4605 28.7C41.4739 28.82 41.4905 28.9367 41.5105 29.05L44.0905 28.43ZM43.0905 25.92C42.8505 25.8867 42.6172 25.8767 42.3905 25.89C42.1639 25.9033 41.9272 25.9433 41.6805 26.01C41.6139 26.2167 41.5605 26.44 41.5205 26.68C41.4805 26.92 41.4505 27.1633 41.4305 27.41C41.7172 27.3167 42.0172 27.1967 42.3305 27.05C42.6505 26.8967 42.9405 26.7367 43.2005 26.57L43.0905 25.92ZM50.4522 28.71C50.5122 28.79 50.5722 28.9033 50.6322 29.05C50.6922 29.1967 50.7289 29.3467 50.7422 29.5L49.3922 30.16C49.2189 30.0733 49.0355 29.96 48.8422 29.82C48.6489 29.68 48.4955 29.5267 48.3822 29.36C48.5022 28.94 48.5822 28.5167 48.6222 28.09C48.6622 27.6633 48.6722 27.2667 48.6522 26.9C48.6389 26.5267 48.6022 26.2233 48.5422 25.99C48.3755 26.0633 48.1955 26.1933 48.0022 26.38C47.8155 26.56 47.6289 26.7767 47.4422 27.03C47.2555 27.2833 47.0822 27.5567 46.9222 27.85L46.8622 30C46.7155 30.04 46.5455 30.06 46.3522 30.06C46.1589 30.06 45.9855 30.04 45.8322 30C45.6255 29.78 45.4555 29.53 45.3222 29.25C45.3822 28.95 45.4622 28.66 45.5622 28.38C45.6689 28.1 45.7855 27.8367 45.9122 27.59L45.9222 27.44L45.8022 26.06L44.9322 26.28C44.8855 26.2 44.8289 26.09 44.7622 25.95C44.6955 25.8033 44.6555 25.6533 44.6422 25.5L45.9922 24.84C46.0589 24.8467 46.1522 24.8833 46.2722 24.95C46.3989 25.0167 46.5222 25.09 46.6422 25.17C46.7689 25.2433 46.8622 25.3067 46.9222 25.36L46.8822 26.2C47.2555 25.7733 47.6289 25.44 48.0022 25.2C48.3822 24.96 48.6955 24.84 48.9422 24.84C49.0422 24.8933 49.1522 24.9867 49.2722 25.12C49.3922 25.2533 49.5022 25.4033 49.6022 25.57C49.7022 25.73 49.7722 25.89 49.8122 26.05L49.6422 28.92L50.4522 28.71ZM56.2606 28.72C56.3073 28.8 56.364 28.9133 56.4306 29.06C56.4973 29.2 56.5373 29.3467 56.5506 29.5L55.2006 30.16C55.134 30.1533 55.0373 30.1167 54.9106 30.05C54.7906 29.9833 54.6673 29.91 54.5406 29.83C54.4206 29.75 54.3306 29.6867 54.2706 29.64L54.3106 28.81C53.9573 29.1967 53.6073 29.52 53.2606 29.78C52.9206 30.0333 52.654 30.16 52.4606 30.16C52.3606 30.1067 52.2273 30.0133 52.0606 29.88C51.9006 29.7467 51.7506 29.5967 51.6106 29.43C51.4706 29.2633 51.3806 29.1033 51.3406 28.95L51.5706 26.1L50.8306 26.29C50.7706 26.21 50.7106 26.0967 50.6506 25.95C50.5906 25.8033 50.554 25.6533 50.5406 25.5L51.8906 24.84C52.064 24.9267 52.2473 25.04 52.4406 25.18C52.6406 25.32 52.794 25.4733 52.9006 25.64C52.7806 26.0533 52.694 26.4767 52.6406 26.91C52.594 27.3367 52.574 27.7367 52.5806 28.11C52.5873 28.4767 52.614 28.78 52.6606 29.02C52.9073 28.92 53.174 28.7133 53.4606 28.4C53.754 28.08 54.024 27.7167 54.2706 27.31L54.3206 25.1C54.474 25.06 54.664 25.0233 54.8906 24.99C55.124 24.9567 55.314 24.96 55.4606 25C55.5673 25.1067 55.6606 25.2233 55.7406 25.35C55.8206 25.4767 55.894 25.61 55.9606 25.75C55.9406 26.0233 55.8673 26.3133 55.7406 26.62C55.6206 26.9267 55.464 27.2333 55.2706 27.54V27.56L55.3906 28.94L56.2606 28.72ZM58.1612 24.27C57.8145 24.0833 57.5012 23.8367 57.2212 23.53C57.2278 23.4233 57.2712 23.3033 57.3512 23.17C57.4378 23.03 57.5378 22.9033 57.6512 22.79C57.7712 22.67 57.8845 22.5967 57.9912 22.57C58.0978 22.57 58.2178 22.6133 58.3512 22.7C58.4845 22.78 58.6078 22.88 58.7212 23C58.8345 23.1133 58.9012 23.2233 58.9212 23.33C58.9145 23.4433 58.8678 23.57 58.7812 23.71C58.6945 23.8433 58.5945 23.9633 58.4812 24.07C58.3678 24.17 58.2612 24.2367 58.1612 24.27ZM59.2612 28.66C59.3078 28.74 59.3645 28.8633 59.4312 29.03C59.4978 29.19 59.5378 29.3467 59.5512 29.5L58.2012 30.16C57.6945 29.9267 57.3478 29.6267 57.1612 29.26L57.3712 26.12L56.6412 26.34C56.5945 26.26 56.5378 26.14 56.4712 25.98C56.4045 25.8133 56.3645 25.6533 56.3512 25.5L57.7012 24.84C57.7678 24.8467 57.8645 24.8833 57.9912 24.95C58.1178 25.0167 58.2412 25.09 58.3612 25.17C58.4878 25.25 58.5845 25.3167 58.6512 25.37L58.3712 27.57V28.93L59.2612 28.66ZM60.9892 25.98C61.0892 26.1867 61.2459 26.37 61.4592 26.53C61.6726 26.6833 61.9126 26.8467 62.1792 27.02C62.4459 27.1867 62.7092 27.3867 62.9692 27.62C63.2359 27.8467 63.4726 28.1367 63.6792 28.49C63.6259 28.7967 63.5292 29.0867 63.3892 29.36C63.2492 29.6333 63.0792 29.8467 62.8792 30C62.5526 30.0867 62.1926 30.1333 61.7992 30.14C61.4059 30.1533 60.9859 30.1167 60.5392 30.03C60.4526 29.9633 60.3526 29.88 60.2392 29.78C60.1259 29.6733 60.0259 29.5633 59.9392 29.45L59.9892 28.14C60.1026 28.1 60.2359 28.0767 60.3892 28.07C60.5426 28.0567 60.6826 28.0667 60.8092 28.1L60.9692 29.19C61.2626 29.2367 61.5626 29.24 61.8692 29.2C62.1826 29.1533 62.4426 29.08 62.6492 28.98C62.4826 28.76 62.2726 28.5633 62.0192 28.39C61.7726 28.2167 61.5126 28.0467 61.2392 27.88C60.9726 27.7067 60.7226 27.51 60.4892 27.29C60.2626 27.07 60.0859 26.8 59.9592 26.48C59.9792 26.3333 60.0226 26.1667 60.0892 25.98C60.1559 25.7867 60.2359 25.6033 60.3292 25.43C60.4292 25.2567 60.5359 25.12 60.6492 25.02C61.0826 24.9 61.4959 24.84 61.8892 24.84C62.2826 24.8333 62.7026 24.8767 63.1492 24.97C63.2359 25.0233 63.3259 25.1167 63.4192 25.25C63.5192 25.3833 63.5959 25.49 63.6492 25.57L63.5092 26.81C63.3959 26.85 63.2659 26.87 63.1192 26.87C62.9726 26.87 62.8326 26.8567 62.6992 26.83L62.6092 25.81C62.3426 25.79 62.0659 25.7933 61.7792 25.82C61.4992 25.8467 61.2359 25.9 60.9892 25.98Z" fill="black"/>
<rect x="2" y="23" width="30" height="7" fill="black"/>
</svg>
