<svg width="58" height="11" viewBox="0 0 58 11" fill="none" xmlns="http://www.w3.org/2000/svg">
<path d="M0.98 0.339999V0.199999H3.472V0.339999H2.786V9.86H3.472V10H0.98V9.86H1.624V0.339999H0.98ZM10.4032 10C10.0205 10 9.72654 9.916 9.5212 9.748C9.3252 9.58 9.22254 9.412 9.2132 9.244L9.1992 9.006V4.61C9.1992 3.87267 9.00787 3.40133 8.6252 3.196C8.4292 3.10267 8.18654 3.056 7.8972 3.056C7.29987 3.056 6.7632 3.294 6.2872 3.77C5.8112 4.23667 5.5732 4.65667 5.5732 5.03V10H4.5932V3H5.5732V4.596C5.73187 4.19467 6.02587 3.82133 6.4552 3.476C6.88454 3.12133 7.35587 2.944 7.8692 2.944C8.38254 2.944 8.79787 2.99533 9.1152 3.098C9.44187 3.19133 9.67987 3.32667 9.8292 3.504C10.0625 3.79333 10.1792 4.16667 10.1792 4.624V9.006C10.1792 9.27667 10.2305 9.48667 10.3332 9.636C10.4452 9.776 10.5572 9.85067 10.6692 9.86L10.8232 9.888H11.2572V10H10.4032ZM17.7723 10C17.3897 10 17.0957 9.916 16.8903 9.748C16.6943 9.58 16.5917 9.412 16.5823 9.244L16.5683 9.006V4.61C16.5683 3.87267 16.377 3.40133 15.9943 3.196C15.7983 3.10267 15.5557 3.056 15.2663 3.056C14.669 3.056 14.1323 3.294 13.6563 3.77C13.1803 4.23667 12.9423 4.65667 12.9423 5.03V10H11.9623V3H12.9423V4.596C13.101 4.19467 13.395 3.82133 13.8243 3.476C14.2537 3.12133 14.725 2.944 15.2383 2.944C15.7517 2.944 16.167 2.99533 16.4843 3.098C16.811 3.19133 17.049 3.32667 17.1983 3.504C17.4317 3.79333 17.5483 4.16667 17.5483 4.624V9.006C17.5483 9.27667 17.5997 9.48667 17.7023 9.636C17.8143 9.776 17.9263 9.85067 18.0383 9.86L18.1923 9.888H18.6263V10H17.7723ZM22.0889 10.056C21.1089 10.056 20.3109 9.776 19.6949 9.216C19.0789 8.656 18.7709 7.79267 18.7709 6.626C18.7709 5.45933 19.0883 4.554 19.7229 3.91C20.3669 3.266 21.1789 2.944 22.1589 2.944C23.1483 2.944 23.9509 3.224 24.5669 3.784C25.1829 4.344 25.4909 5.20733 25.4909 6.374C25.4909 7.54067 25.1689 8.446 24.5249 9.09C23.8903 9.734 23.0783 10.056 22.0889 10.056ZM22.1869 3.056C21.4776 3.056 20.8896 3.37333 20.4229 4.008C19.9563 4.63333 19.7229 5.51067 19.7229 6.64C19.7229 7.76 19.9376 8.59067 20.3669 9.132C20.7963 9.67333 21.3656 9.944 22.0749 9.944C22.7843 9.944 23.3723 9.63133 23.8389 9.006C24.3056 8.37133 24.5389 7.494 24.5389 6.374C24.5389 5.24467 24.3243 4.40933 23.8949 3.868C23.4656 3.32667 22.8963 3.056 22.1869 3.056ZM31.3471 3.084L31.4311 3C31.4684 3.01867 31.5151 3.07467 31.5711 3.168C31.6364 3.26133 31.6738 3.34533 31.6831 3.42C31.7018 3.49467 31.7111 3.56467 31.7111 3.63C31.7111 3.882 31.6551 4.13867 31.5431 4.4L28.8551 10H28.7151L26.1111 3H27.0911L29.2331 8.796L31.4031 4.4C31.5151 4.204 31.5711 3.97067 31.5711 3.7C31.5711 3.42933 31.4964 3.224 31.3471 3.084ZM38.2658 10C37.6312 10 37.1972 9.87867 36.9638 9.636C36.7492 9.43067 36.6418 9.25333 36.6418 9.104V8.81C36.1845 9.64067 35.4518 10.056 34.4438 10.056C33.2678 10.056 32.6005 9.524 32.4418 8.46C32.4232 8.348 32.4138 8.236 32.4138 8.124C32.4138 8.00267 32.4325 7.872 32.4698 7.732C32.5072 7.592 32.6145 7.438 32.7918 7.27C33.1465 6.934 33.9258 6.72867 35.1298 6.654C35.4285 6.626 35.7038 6.612 35.9558 6.612C36.2078 6.612 36.4365 6.62133 36.6418 6.64V4.316C36.6232 4.30667 36.6232 4.26467 36.6418 4.19C36.6605 4.106 36.6418 4.00333 36.5858 3.882C36.5392 3.75133 36.4738 3.62533 36.3898 3.504C36.3058 3.38267 36.1565 3.28 35.9418 3.196C35.7272 3.10267 35.4472 3.056 35.1018 3.056C34.7565 3.056 34.3505 3.12133 33.8838 3.252C33.4265 3.37333 33.0905 3.49467 32.8758 3.616L32.8198 3.518C33.6505 3.13533 34.4952 2.944 35.3538 2.944C36.3152 2.944 36.9498 3.11667 37.2578 3.462C37.5005 3.73267 37.6218 4.01733 37.6218 4.316V9.006C37.6218 9.27667 37.6732 9.48667 37.7758 9.636C37.8878 9.776 37.9998 9.85067 38.1118 9.86L38.2658 9.888H38.6998V10H38.2658ZM34.6678 9.944C35.1625 9.944 35.6058 9.776 35.9978 9.44C36.3992 9.09467 36.6138 8.76333 36.6418 8.446V6.752C36.3898 6.73333 36.1332 6.724 35.8718 6.724C35.6198 6.724 35.3678 6.738 35.1158 6.766C34.4065 6.85 33.9445 7.00867 33.7298 7.242C33.5152 7.47533 33.4078 7.79733 33.4078 8.208C33.4078 8.28267 33.4125 8.36667 33.4218 8.46C33.5058 9.44933 33.9212 9.944 34.6678 9.944ZM39.6736 3.112V3H39.9676V1.6H40.9476V3H43.0896V3.112H40.9476V8.208C40.9476 8.81467 41.0129 9.25333 41.1436 9.524C41.2836 9.79467 41.5683 9.93 41.9976 9.93C42.4363 9.93 42.8796 9.84133 43.3276 9.664L43.3696 9.776C42.9029 9.95333 42.3663 10.042 41.7596 10.042C41.1623 10.042 40.7143 9.92067 40.4156 9.678C40.1169 9.426 39.9676 8.93133 39.9676 8.194V3.112H39.6736ZM44.9475 6.584C44.9475 7.74133 45.1482 8.59067 45.5495 9.132C45.9602 9.67333 46.4969 9.944 47.1595 9.944C48.0929 9.944 48.9235 9.804 49.6515 9.524L49.6935 9.622C48.9469 9.91133 48.1022 10.056 47.1595 10.056C46.2262 10.056 45.4655 9.776 44.8775 9.216C44.2895 8.656 43.9955 7.79267 43.9955 6.626C43.9955 5.45933 44.3035 4.554 44.9195 3.91C45.5355 3.266 46.3195 2.944 47.2715 2.944C48.0369 2.944 48.6809 3.17267 49.2035 3.63C49.7262 4.08733 49.9875 4.764 49.9875 5.66C49.9875 5.70667 49.9875 5.75333 49.9875 5.8H44.9895C44.9615 6.052 44.9475 6.31333 44.9475 6.584ZM49.0355 5.688C49.0262 4.792 48.8535 4.12933 48.5175 3.7C48.1815 3.27067 47.7475 3.056 47.2155 3.056C46.6835 3.056 46.2075 3.28933 45.7875 3.756C45.3769 4.22267 45.1155 4.86667 45.0035 5.688H49.0355ZM51.2619 10H51.0799L53.6139 4.988L50.8419 0.199999H52.0179L54.4259 4.344L56.5259 0.199999H56.6939L54.5239 4.512L57.7159 10H56.5399L53.7119 5.142L51.2619 10Z" fill="black"/>
</svg>
