<svg width="42" height="8" viewBox="0 0 42 8" fill="none" xmlns="http://www.w3.org/2000/svg">
<path d="M0.7 0.0999994V-4.76837e-07H2.48V0.0999994H1.99V6.9H2.48V7H0.7V6.9H1.16V0.0999994H0.7ZM7.43086 7C7.15753 7 6.94753 6.94 6.80086 6.82C6.66086 6.7 6.58753 6.58 6.58086 6.46L6.57086 6.29V3.15C6.57086 2.62333 6.43419 2.28667 6.16086 2.14C6.02086 2.07333 5.84753 2.04 5.64086 2.04C5.21419 2.04 4.83086 2.21 4.49086 2.55C4.15086 2.88333 3.98086 3.18333 3.98086 3.45V7H3.28086V2H3.98086V3.14C4.09419 2.85333 4.30419 2.58667 4.61086 2.34C4.91753 2.08667 5.25419 1.96 5.62086 1.96C5.98753 1.96 6.28419 1.99667 6.51086 2.07C6.74419 2.13667 6.91419 2.23333 7.02086 2.36C7.18753 2.56667 7.27086 2.83333 7.27086 3.16V6.29C7.27086 6.48333 7.30753 6.63333 7.38086 6.74C7.46086 6.84 7.54086 6.89333 7.62086 6.9L7.73086 6.92H8.04086V7H7.43086ZM12.6945 7C12.4212 7 12.2112 6.94 12.0645 6.82C11.9245 6.7 11.8512 6.58 11.8445 6.46L11.8345 6.29V3.15C11.8345 2.62333 11.6979 2.28667 11.4245 2.14C11.2845 2.07333 11.1112 2.04 10.9045 2.04C10.4779 2.04 10.0945 2.21 9.75453 2.55C9.41453 2.88333 9.24453 3.18333 9.24453 3.45V7H8.54453V2H9.24453V3.14C9.35786 2.85333 9.56786 2.58667 9.87453 2.34C10.1812 2.08667 10.5179 1.96 10.8845 1.96C11.2512 1.96 11.5479 1.99667 11.7745 2.07C12.0079 2.13667 12.1779 2.23333 12.2845 2.36C12.4512 2.56667 12.5345 2.83333 12.5345 3.16V6.29C12.5345 6.48333 12.5712 6.63333 12.6445 6.74C12.7245 6.84 12.8045 6.89333 12.8845 6.9L12.9945 6.92H13.3045V7H12.6945ZM15.7778 7.04C15.0778 7.04 14.5078 6.84 14.0678 6.44C13.6278 6.04 13.4078 5.42333 13.4078 4.59C13.4078 3.75667 13.6345 3.11 14.0878 2.65C14.5478 2.19 15.1278 1.96 15.8278 1.96C16.5345 1.96 17.1078 2.16 17.5478 2.56C17.9878 2.96 18.2078 3.57667 18.2078 4.41C18.2078 5.24333 17.9778 5.89 17.5178 6.35C17.0645 6.81 16.4845 7.04 15.7778 7.04ZM15.8478 2.04C15.3411 2.04 14.9211 2.26667 14.5878 2.72C14.2545 3.16667 14.0878 3.79333 14.0878 4.6C14.0878 5.4 14.2411 5.99333 14.5478 6.38C14.8545 6.76667 15.2611 6.96 15.7678 6.96C16.2745 6.96 16.6945 6.73667 17.0278 6.29C17.3611 5.83667 17.5278 5.21 17.5278 4.41C17.5278 3.60333 17.3745 3.00667 17.0678 2.62C16.7611 2.23333 16.3545 2.04 15.8478 2.04ZM22.3908 2.06L22.4508 2C22.4774 2.01333 22.5108 2.05333 22.5508 2.12C22.5974 2.18667 22.6241 2.24667 22.6308 2.3C22.6441 2.35333 22.6508 2.40333 22.6508 2.45C22.6508 2.63 22.6108 2.81333 22.5308 3L20.6108 7H20.5108L18.6508 2H19.3508L20.8808 6.14L22.4308 3C22.5108 2.86 22.5508 2.69333 22.5508 2.5C22.5508 2.30667 22.4974 2.16 22.3908 2.06ZM27.3327 7C26.8794 7 26.5694 6.91333 26.4027 6.74C26.2494 6.59333 26.1727 6.46667 26.1727 6.36V6.15C25.8461 6.74333 25.3227 7.04 24.6027 7.04C23.7627 7.04 23.2861 6.66 23.1727 5.9C23.1594 5.82 23.1527 5.74 23.1527 5.66C23.1527 5.57333 23.1661 5.48 23.1927 5.38C23.2194 5.28 23.2961 5.17 23.4227 5.05C23.6761 4.81 24.2327 4.66333 25.0927 4.61C25.3061 4.59 25.5027 4.58 25.6827 4.58C25.8627 4.58 26.0261 4.58667 26.1727 4.6V2.94C26.1594 2.93333 26.1594 2.90333 26.1727 2.85C26.1861 2.79 26.1727 2.71667 26.1327 2.63C26.0994 2.53667 26.0527 2.44667 25.9927 2.36C25.9327 2.27333 25.8261 2.2 25.6727 2.14C25.5194 2.07333 25.3194 2.04 25.0727 2.04C24.8261 2.04 24.5361 2.08667 24.2027 2.18C23.8761 2.26667 23.6361 2.35333 23.4827 2.44L23.4427 2.37C24.0361 2.09667 24.6394 1.96 25.2527 1.96C25.9394 1.96 26.3927 2.08333 26.6127 2.33C26.7861 2.52333 26.8727 2.72667 26.8727 2.94V6.29C26.8727 6.48333 26.9094 6.63333 26.9827 6.74C27.0627 6.84 27.1427 6.89333 27.2227 6.9L27.3327 6.92H27.6427V7H27.3327ZM24.7627 6.96C25.1161 6.96 25.4327 6.84 25.7127 6.6C25.9994 6.35333 26.1527 6.11667 26.1727 5.89V4.68C25.9927 4.66667 25.8094 4.66 25.6227 4.66C25.4427 4.66 25.2627 4.67 25.0827 4.69C24.5761 4.75 24.2461 4.86333 24.0927 5.03C23.9394 5.19667 23.8627 5.42667 23.8627 5.72C23.8627 5.77333 23.8661 5.83333 23.8727 5.9C23.9327 6.60667 24.2294 6.96 24.7627 6.96ZM28.3383 2.08V2H28.5483V1H29.2483V2H30.7783V2.08H29.2483V5.72C29.2483 6.15333 29.2949 6.46667 29.3883 6.66C29.4883 6.85333 29.6916 6.95 29.9983 6.95C30.3116 6.95 30.6283 6.88667 30.9483 6.76L30.9783 6.84C30.6449 6.96667 30.2616 7.03 29.8283 7.03C29.4016 7.03 29.0816 6.94333 28.8683 6.77C28.6549 6.59 28.5483 6.23667 28.5483 5.71V2.08H28.3383ZM32.1054 4.56C32.1054 5.38667 32.2487 5.99333 32.5354 6.38C32.8287 6.76667 33.2121 6.96 33.6854 6.96C34.3521 6.96 34.9454 6.86 35.4654 6.66L35.4954 6.73C34.9621 6.93667 34.3587 7.04 33.6854 7.04C33.0187 7.04 32.4754 6.84 32.0554 6.44C31.6354 6.04 31.4254 5.42333 31.4254 4.59C31.4254 3.75667 31.6454 3.11 32.0854 2.65C32.5254 2.19 33.0854 1.96 33.7654 1.96C34.3121 1.96 34.7721 2.12333 35.1454 2.45C35.5187 2.77667 35.7054 3.26 35.7054 3.9C35.7054 3.93333 35.7054 3.96667 35.7054 4H32.1354C32.1154 4.18 32.1054 4.36667 32.1054 4.56ZM35.0254 3.92C35.0187 3.28 34.8954 2.80667 34.6554 2.5C34.4154 2.19333 34.1054 2.04 33.7254 2.04C33.3454 2.04 33.0054 2.20667 32.7054 2.54C32.4121 2.87333 32.2254 3.33333 32.1454 3.92H35.0254ZM36.6156 7H36.4856L38.2956 3.42L36.3156 -4.76837e-07H37.1556L38.8756 2.96L40.3756 -4.76837e-07H40.4956L38.9456 3.08L41.2256 7H40.3856L38.3656 3.53L36.6156 7Z" fill="black"/>
</svg>
