<svg width="115" height="25" viewBox="0 0 115 25" fill="none" xmlns="http://www.w3.org/2000/svg">
<path d="M32.4 5.2V5H35.96V5.2H34.98V18.8H35.96V19H32.4V18.8H33.32V5.2H32.4ZM45.8617 19C45.3151 19 44.8951 18.88 44.6017 18.64C44.3217 18.4 44.1751 18.16 44.1617 17.92L44.1417 17.58V11.3C44.1417 10.2467 43.8684 9.57333 43.3217 9.28C43.0417 9.14667 42.6951 9.08 42.2817 9.08C41.4284 9.08 40.6617 9.42 39.9817 10.1C39.3017 10.7667 38.9617 11.3667 38.9617 11.9V19H37.5617V9H38.9617V11.28C39.1884 10.7067 39.6084 10.1733 40.2217 9.68C40.8351 9.17333 41.5084 8.92 42.2417 8.92C42.9751 8.92 43.5684 8.99333 44.0217 9.14C44.4884 9.27333 44.8284 9.46667 45.0417 9.72C45.3751 10.1333 45.5417 10.6667 45.5417 11.32V17.58C45.5417 17.9667 45.6151 18.2667 45.7617 18.48C45.9217 18.68 46.0817 18.7867 46.2417 18.8L46.4617 18.84H47.0817V19H45.8617ZM56.3891 19C55.8424 19 55.4224 18.88 55.1291 18.64C54.8491 18.4 54.7024 18.16 54.6891 17.92L54.6691 17.58V11.3C54.6691 10.2467 54.3957 9.57333 53.8491 9.28C53.5691 9.14667 53.2224 9.08 52.8091 9.08C51.9557 9.08 51.1891 9.42 50.5091 10.1C49.8291 10.7667 49.4891 11.3667 49.4891 11.9V19H48.0891V9H49.4891V11.28C49.7157 10.7067 50.1357 10.1733 50.7491 9.68C51.3624 9.17333 52.0357 8.92 52.7691 8.92C53.5024 8.92 54.0957 8.99333 54.5491 9.14C55.0157 9.27333 55.3557 9.46667 55.5691 9.72C55.9024 10.1333 56.0691 10.6667 56.0691 11.32V17.58C56.0691 17.9667 56.1424 18.2667 56.2891 18.48C56.4491 18.68 56.6091 18.7867 56.7691 18.8L56.9891 18.84H57.6091V19H56.3891ZM62.5556 19.08C61.1556 19.08 60.0156 18.68 59.1356 17.88C58.2556 17.08 57.8156 15.8467 57.8156 14.18C57.8156 12.5133 58.269 11.22 59.1756 10.3C60.0956 9.38 61.2556 8.92 62.6556 8.92C64.069 8.92 65.2156 9.32 66.0956 10.12C66.9756 10.92 67.4156 12.1533 67.4156 13.82C67.4156 15.4867 66.9556 16.78 66.0356 17.7C65.129 18.62 63.969 19.08 62.5556 19.08ZM62.6956 9.08C61.6823 9.08 60.8423 9.53333 60.1756 10.44C59.509 11.3333 59.1756 12.5867 59.1756 14.2C59.1756 15.8 59.4823 16.9867 60.0956 17.76C60.709 18.5333 61.5223 18.92 62.5356 18.92C63.549 18.92 64.389 18.4733 65.0556 17.58C65.7223 16.6733 66.0556 15.42 66.0556 13.82C66.0556 12.2067 65.749 11.0133 65.1356 10.24C64.5223 9.46667 63.709 9.08 62.6956 9.08ZM75.7816 9.12L75.9016 9C75.9549 9.02667 76.0216 9.10667 76.1016 9.24C76.1949 9.37333 76.2482 9.49333 76.2616 9.6C76.2882 9.70667 76.3016 9.80667 76.3016 9.9C76.3016 10.26 76.2216 10.6267 76.0616 11L72.2216 19H72.0216L68.3016 9H69.7016L72.7616 17.28L75.8616 11C76.0216 10.72 76.1016 10.3867 76.1016 10C76.1016 9.61333 75.9949 9.32 75.7816 9.12ZM85.6655 19C84.7588 19 84.1388 18.8267 83.8055 18.48C83.4988 18.1867 83.3455 17.9333 83.3455 17.72V17.3C82.6921 18.4867 81.6455 19.08 80.2055 19.08C78.5255 19.08 77.5721 18.32 77.3455 16.8C77.3188 16.64 77.3055 16.48 77.3055 16.32C77.3055 16.1467 77.3321 15.96 77.3855 15.76C77.4388 15.56 77.5921 15.34 77.8455 15.1C78.3521 14.62 79.4655 14.3267 81.1855 14.22C81.6121 14.18 82.0055 14.16 82.3655 14.16C82.7255 14.16 83.0521 14.1733 83.3455 14.2V10.88C83.3188 10.8667 83.3188 10.8067 83.3455 10.7C83.3721 10.58 83.3455 10.4333 83.2655 10.26C83.1988 10.0733 83.1055 9.89333 82.9855 9.72C82.8655 9.54667 82.6521 9.4 82.3455 9.28C82.0388 9.14667 81.6388 9.08 81.1455 9.08C80.6521 9.08 80.0721 9.17333 79.4055 9.36C78.7521 9.53333 78.2721 9.70667 77.9655 9.88L77.8855 9.74C79.0721 9.19333 80.2788 8.92 81.5055 8.92C82.8788 8.92 83.7855 9.16667 84.2255 9.66C84.5721 10.0467 84.7455 10.4533 84.7455 10.88V17.58C84.7455 17.9667 84.8188 18.2667 84.9655 18.48C85.1255 18.68 85.2855 18.7867 85.4455 18.8L85.6655 18.84H86.2855V19H85.6655ZM80.5255 18.92C81.2321 18.92 81.8655 18.68 82.4255 18.2C82.9988 17.7067 83.3055 17.2333 83.3455 16.78V14.36C82.9855 14.3333 82.6188 14.32 82.2455 14.32C81.8855 14.32 81.5255 14.34 81.1655 14.38C80.1521 14.5 79.4921 14.7267 79.1855 15.06C78.8788 15.3933 78.7255 15.8533 78.7255 16.44C78.7255 16.5467 78.7321 16.6667 78.7455 16.8C78.8655 18.2133 79.4588 18.92 80.5255 18.92ZM87.6766 9.16V9H88.0966V7H89.4966V9H92.5566V9.16H89.4966V16.44C89.4966 17.3067 89.5899 17.9333 89.7766 18.32C89.9766 18.7067 90.3832 18.9 90.9966 18.9C91.6232 18.9 92.2566 18.7733 92.8966 18.52L92.9566 18.68C92.2899 18.9333 91.5232 19.06 90.6566 19.06C89.8032 19.06 89.1632 18.8867 88.7366 18.54C88.3099 18.18 88.0966 17.4733 88.0966 16.42V9.16H87.6766ZM95.2108 14.12C95.2108 15.7733 95.4974 16.9867 96.0708 17.76C96.6574 18.5333 97.4241 18.92 98.3708 18.92C99.7041 18.92 100.891 18.72 101.931 18.32L101.991 18.46C100.924 18.8733 99.7174 19.08 98.3708 19.08C97.0374 19.08 95.9508 18.68 95.1108 17.88C94.2708 17.08 93.8508 15.8467 93.8508 14.18C93.8508 12.5133 94.2908 11.22 95.1708 10.3C96.0508 9.38 97.1708 8.92 98.5308 8.92C99.6241 8.92 100.544 9.24667 101.291 9.9C102.037 10.5533 102.411 11.52 102.411 12.8C102.411 12.8667 102.411 12.9333 102.411 13H95.2708C95.2308 13.36 95.2108 13.7333 95.2108 14.12ZM101.051 12.84C101.037 11.56 100.791 10.6133 100.311 10C99.8308 9.38667 99.2108 9.08 98.4508 9.08C97.6908 9.08 97.0108 9.41333 96.4108 10.08C95.8241 10.7467 95.4508 11.6667 95.2908 12.84H101.051ZM104.231 19H103.971L107.591 11.84L103.631 5H105.311L108.751 10.92L111.751 5H111.991L108.891 11.16L113.451 19H111.771L107.731 12.06L104.231 19Z" fill="#FBFCF8"/>
<path d="M15.5 0L18.98 8.63729H30.2414L21.1307 13.9754L24.6107 22.6127L15.5 17.2746L6.38933 22.6127L9.8693 13.9754L0.758624 8.63729H12.02L15.5 0Z" fill="#3D5461"/>
</svg>
