<svg width="103" height="31" viewBox="0 0 103 31" fill="none" xmlns="http://www.w3.org/2000/svg">
<rect x="0.5" y="0.5" width="102" height="30" rx="1.5" stroke="#FBFCF8"/>
<rect x="2" y="3" width="49" height="25" rx="1" fill="white"/>
<path d="M19.536 15.832L19.984 21.032L19.088 21.256C18.8107 21.1173 18.528 20.9307 18.24 20.696C17.952 20.4507 17.7173 20.1573 17.536 19.816L17.888 15.624L17.728 11.976L14.928 20.472L14.336 20.664C13.6533 20.2693 13.1253 19.704 12.752 18.968L11.52 12.376L11.088 15.832L10.944 21.032L10.016 21.256C9.46133 20.9787 8.99733 20.4987 8.624 19.816L9.536 15.624L9.984 11.544L8.64 11.592C8.49067 11.336 8.40533 11.0427 8.384 10.712C8.37333 10.3707 8.40533 10.0667 8.48 9.8H10.8C10.96 9.87467 11.152 9.992 11.376 10.152C11.6107 10.312 11.8453 10.4827 12.08 10.664C12.3253 10.8453 12.5333 11.016 12.704 11.176L14.288 17.816L17.056 10.008L17.52 9.688C17.6373 9.70933 17.808 9.768 18.032 9.864C18.2667 9.96 18.496 10.0667 18.72 10.184C18.944 10.3013 19.104 10.4133 19.2 10.52L19.536 15.832ZM23.2516 11.832C22.697 11.5333 22.1956 11.1387 21.7476 10.648C21.7583 10.4773 21.8276 10.2853 21.9556 10.072C22.0943 9.848 22.2543 9.64533 22.4356 9.464C22.6276 9.272 22.809 9.15467 22.9796 9.112C23.1503 9.112 23.3423 9.18133 23.5556 9.32C23.769 9.448 23.9663 9.608 24.1476 9.8C24.329 9.98133 24.4356 10.1573 24.4676 10.328C24.457 10.5093 24.3823 10.712 24.2436 10.936C24.105 11.1493 23.945 11.3413 23.7636 11.512C23.5823 11.672 23.4116 11.7787 23.2516 11.832ZM25.0116 18.856C25.0863 18.984 25.177 19.1813 25.2836 19.448C25.3903 19.704 25.4543 19.9547 25.4756 20.2L23.3156 21.256C22.505 20.8827 21.9503 20.4027 21.6516 19.816L21.9876 14.792L20.8196 15.144C20.745 15.016 20.6543 14.824 20.5476 14.568C20.441 14.3013 20.377 14.0453 20.3556 13.8L22.5156 12.744C22.6223 12.7547 22.777 12.8133 22.9796 12.92C23.1823 13.0267 23.3796 13.144 23.5716 13.272C23.7743 13.4 23.929 13.5067 24.0356 13.592L23.5876 17.112V19.288L25.0116 18.856ZM34.3704 18.936C34.4664 19.064 34.5624 19.2453 34.6584 19.48C34.7544 19.7147 34.813 19.9547 34.8344 20.2L32.6744 21.256C32.397 21.1173 32.1037 20.936 31.7944 20.712C31.485 20.488 31.2397 20.2427 31.0584 19.976C31.2504 19.304 31.3784 18.6267 31.4424 17.944C31.5064 17.2613 31.5224 16.6267 31.4904 16.04C31.469 15.4427 31.4104 14.9573 31.3144 14.584C31.0477 14.7013 30.7597 14.9093 30.4504 15.208C30.1517 15.496 29.853 15.8427 29.5544 16.248C29.2557 16.6533 28.9784 17.0907 28.7224 17.56L28.6264 21C28.3917 21.064 28.1197 21.096 27.8104 21.096C27.501 21.096 27.2237 21.064 26.9784 21C26.6477 20.648 26.3757 20.248 26.1624 19.8C26.2584 19.32 26.3864 18.856 26.5464 18.408C26.717 17.96 26.9037 17.5387 27.1064 17.144L27.1224 16.904L26.9304 14.696L25.5384 15.048C25.4637 14.92 25.373 14.744 25.2664 14.52C25.1597 14.2853 25.0957 14.0453 25.0744 13.8L27.2344 12.744C27.341 12.7547 27.4904 12.8133 27.6824 12.92C27.885 13.0267 28.0824 13.144 28.2744 13.272C28.477 13.3893 28.6264 13.4907 28.7224 13.576L28.6584 14.92C29.2557 14.2373 29.853 13.704 30.4504 13.32C31.0584 12.936 31.5597 12.744 31.9544 12.744C32.1144 12.8293 32.2904 12.9787 32.4824 13.192C32.6744 13.4053 32.8504 13.6453 33.0104 13.912C33.1704 14.168 33.2824 14.424 33.3464 14.68L33.0744 19.272L34.3704 18.936ZM43.4239 18.936C43.5199 19.064 43.6159 19.2453 43.7119 19.48C43.8079 19.7147 43.8665 19.9547 43.8879 20.2L41.7279 21.256C41.6212 21.2453 41.4665 21.1867 41.2639 21.08C41.0719 20.9733 40.8745 20.856 40.6719 20.728C40.4799 20.6 40.3359 20.4987 40.2399 20.424L40.3199 18.808C39.7225 19.5227 39.1092 20.0987 38.4799 20.536C37.8612 20.9733 37.3439 21.2133 36.9279 21.256C36.7679 21.1707 36.5705 21.0213 36.3359 20.808C36.1119 20.584 35.8985 20.3387 35.6959 20.072C35.5039 19.7947 35.3759 19.5333 35.3119 19.288L35.6479 14.872C35.8079 14.5307 36.0372 14.1893 36.3359 13.848C36.6345 13.496 36.9332 13.2133 37.2319 13C38.3092 12.7227 39.3865 12.6853 40.4639 12.888L40.4799 9.928L39.2159 10.248C39.1412 10.12 39.0505 9.944 38.9439 9.72C38.8372 9.48533 38.7732 9.24533 38.7519 9L40.9119 7.944C41.0185 7.95467 41.1679 8.008 41.3599 8.104C41.5625 8.2 41.7599 8.312 41.9519 8.44C42.1545 8.568 42.3039 8.68 42.3999 8.776L41.9199 17.064L42.0639 19.288L43.4239 18.936ZM37.5199 19.304C37.8292 19.1973 38.1599 18.984 38.5119 18.664C38.8745 18.3333 39.2212 17.9387 39.5519 17.48C39.8932 17.0107 40.1919 16.5147 40.4479 15.992L40.4639 14.536C40.0052 14.4293 39.5359 14.3973 39.0559 14.44C38.5759 14.472 38.1332 14.5413 37.7279 14.648C37.5252 15.2027 37.3812 15.7627 37.2959 16.328C37.2212 16.8827 37.1839 17.3893 37.1839 17.848C37.1945 18.3067 37.2319 18.6693 37.2959 18.936C37.3599 19.2027 37.4345 19.3253 37.5199 19.304Z" fill="black"/>
<path d="M64.216 10.856V19.528C64.216 19.752 64.2853 19.9333 64.424 20.072C64.5733 20.2 64.7653 20.264 65 20.264H67.32C67.8853 20.264 68.3707 20.1307 68.776 19.864C69.1813 19.5867 69.4587 19.1867 69.608 18.664C69.6613 18.4933 69.7733 18.408 69.944 18.408C70.1147 18.408 70.1893 18.504 70.168 18.696L69.912 20.36C69.8907 20.5413 69.816 20.696 69.688 20.824C69.56 20.9413 69.3947 21 69.192 21H63.512L61.704 21.064C61.5547 21.064 61.48 20.9947 61.48 20.856C61.48 20.7067 61.5387 20.632 61.656 20.632L62.12 20.6C62.3333 20.5787 62.5093 20.5147 62.648 20.408C62.7867 20.2907 62.856 20.136 62.856 19.944V10.856C62.856 10.472 62.6107 10.2587 62.12 10.216L61.656 10.168C61.5387 10.1467 61.48 10.0773 61.48 9.96C61.48 9.81067 61.5547 9.736 61.704 9.736L63.512 9.8L65.096 9.736C65.256 9.736 65.336 9.8 65.336 9.928C65.336 10.0773 65.2667 10.1573 65.128 10.168L64.856 10.216C64.4293 10.2907 64.216 10.504 64.216 10.856ZM78.452 15.944C78.452 16.584 78.164 16.904 77.588 16.904H72.98C72.852 16.904 72.788 16.9947 72.788 17.176C72.8093 18.1573 73.092 18.936 73.636 19.512C74.1907 20.0773 74.8893 20.36 75.732 20.36C76.5853 20.36 77.2147 20.1947 77.62 19.864C77.7587 19.7573 77.8867 19.7627 78.004 19.88C78.1213 19.9973 78.1053 20.1307 77.956 20.28C77.3587 20.8773 76.5373 21.176 75.492 21.176C74.18 21.176 73.1507 20.8027 72.404 20.056C71.668 19.2987 71.3 18.248 71.3 16.904C71.3 15.816 71.668 14.8667 72.404 14.056C73.14 13.2347 74.0147 12.824 75.028 12.824C76.052 12.824 76.8787 13.1227 77.508 13.72C78.1373 14.3067 78.452 15.048 78.452 15.944ZM77.012 15.736C77.012 15.096 76.836 14.5573 76.484 14.12C76.1427 13.672 75.6573 13.448 75.028 13.448C74.4093 13.448 73.8813 13.704 73.444 14.216C73.0067 14.728 72.788 15.3147 72.788 15.976C72.788 16.1467 72.8573 16.232 72.996 16.232H76.516C76.8467 16.232 77.012 16.0667 77.012 15.736ZM87.1879 20.92C87.1879 21.0907 86.9959 21.176 86.6119 21.176C85.9505 21.176 85.3905 20.9147 84.9319 20.392C84.8572 20.3173 84.7985 20.28 84.7559 20.28C84.7239 20.28 84.6705 20.312 84.5959 20.376C83.9025 20.9093 83.1239 21.176 82.2599 21.176C81.6519 21.176 81.1185 20.9893 80.6599 20.616C80.2012 20.232 79.9719 19.7413 79.9719 19.144C79.9719 18.3867 80.3025 17.8107 80.9639 17.416C81.5505 17.0747 82.4679 16.808 83.7159 16.616C84.0145 16.5627 84.2172 16.5253 84.3239 16.504C84.4625 16.4933 84.5319 16.4187 84.5319 16.28V14.808C84.5319 14.3707 84.3825 14.024 84.0839 13.768C83.7959 13.512 83.4065 13.384 82.9159 13.384C82.4359 13.384 81.9985 13.5333 81.6039 13.832C81.2199 14.1307 80.9745 14.5467 80.8679 15.08C80.8359 15.24 80.7452 15.32 80.5959 15.32C80.4572 15.32 80.3879 15.24 80.3879 15.08V13.88C80.3879 13.6987 80.4465 13.5653 80.5639 13.48C81.1292 13.0427 81.9399 12.824 82.9959 12.824C84.0519 12.824 84.7932 13.0533 85.2199 13.512C85.6465 13.9707 85.8599 14.5627 85.8599 15.288V19.56C85.8599 19.9013 85.9665 20.1787 86.1799 20.392C86.4039 20.6053 86.6652 20.712 86.9639 20.712C87.1132 20.712 87.1879 20.7813 87.1879 20.92ZM84.4999 19.432V17.432C84.4999 17.272 84.4305 17.192 84.2919 17.192C84.2812 17.192 84.2652 17.192 84.2439 17.192C82.3345 17.4267 81.3799 18.0133 81.3799 18.952C81.3799 19.3893 81.5239 19.736 81.8119 19.992C82.0999 20.2373 82.4199 20.36 82.7719 20.36C83.1345 20.36 83.4492 20.2907 83.7159 20.152C83.9932 20.0133 84.1905 19.8747 84.3079 19.736C84.4359 19.5973 84.4999 19.496 84.4999 19.432ZM95.0878 17.512C95.0878 16.232 94.8318 15.24 94.3198 14.536C93.8078 13.832 93.1678 13.48 92.3998 13.48C91.6424 13.48 91.0718 13.688 90.6878 14.104C90.3144 14.5093 90.1278 14.9413 90.1278 15.4V18.616C90.1278 19.128 90.3518 19.5813 90.7998 19.976C91.2584 20.36 91.7598 20.552 92.3038 20.552C93.1571 20.552 93.8344 20.2853 94.3358 19.752C94.8371 19.2187 95.0878 18.472 95.0878 17.512ZM89.8718 12.824C90.0424 12.824 90.1278 12.9467 90.1278 13.192V13.496C90.1278 13.624 90.1704 13.6507 90.2558 13.576C90.3518 13.5013 90.4798 13.416 90.6398 13.32C90.7998 13.2133 91.0451 13.1067 91.3758 13C91.7064 12.8827 92.0424 12.824 92.3838 12.824C93.6318 12.824 94.6238 13.2027 95.3598 13.96C96.1064 14.7067 96.4798 15.7093 96.4798 16.968C96.4798 18.2267 96.0904 19.2453 95.3118 20.024C94.5331 20.792 93.5838 21.176 92.4638 21.176C91.6424 21.176 90.9278 20.952 90.3198 20.504C90.2664 20.4613 90.2184 20.456 90.1758 20.488C90.1438 20.52 90.1278 20.5733 90.1278 20.648V24.744C90.1278 25.128 90.3411 25.3467 90.7678 25.4L91.0398 25.432C91.1678 25.4427 91.2318 25.5173 91.2318 25.656C91.2318 25.7947 91.1518 25.864 90.9918 25.864L89.4718 25.8L87.7438 25.864C87.5838 25.864 87.5038 25.7947 87.5038 25.656C87.5038 25.5173 87.5678 25.4427 87.6958 25.432L88.1438 25.4C88.3571 25.3787 88.5331 25.3093 88.6718 25.192C88.8104 25.0853 88.8798 24.936 88.8798 24.744V14.088C88.8798 13.8747 88.8318 13.7307 88.7358 13.656C88.6504 13.5707 88.5064 13.528 88.3038 13.528H87.7598C87.6211 13.528 87.5518 13.4587 87.5518 13.32C87.5518 13.1813 87.6211 13.1013 87.7598 13.08L89.8398 12.824C89.8504 12.824 89.8611 12.824 89.8718 12.824Z" fill="white"/>
</svg>
