<svg width="177" height="38" viewBox="0 0 177 38" fill="none" xmlns="http://www.w3.org/2000/svg">
<g clip-path="url(#clip0_9_77)">
<path d="M29.0938 0H8.90625C3.98746 0 0 3.98746 0 8.90625V29.0938C0 34.0125 3.98746 38 8.90625 38H29.0938C34.0125 38 38 34.0125 38 29.0938V8.90625C38 3.98746 34.0125 0 29.0938 0Z" fill="#242938"/>
<path d="M18.0279 4.16426C17.9641 4.17005 17.7608 4.19039 17.578 4.20479C13.3615 4.58493 9.41183 6.86019 6.91022 10.3571C5.51743 12.3015 4.62636 14.5069 4.28985 16.8432C4.17095 17.6587 4.1564 17.8996 4.1564 19.0052C4.1564 20.1109 4.17095 20.3518 4.29 21.1672C5.09661 26.7419 9.06375 31.4258 14.444 33.1612C15.4075 33.4718 16.4231 33.6836 17.5781 33.8112C18.028 33.8605 19.9723 33.8605 20.4222 33.8112C22.4158 33.5907 24.1048 33.0974 25.7705 32.247C26.0258 32.1165 26.0753 32.0816 26.0404 32.0527C26.0172 32.0352 24.9289 30.5754 23.6231 28.8111L21.2493 25.6044L18.2746 21.2021C16.6379 18.7818 15.2914 16.8025 15.2797 16.8025C15.2681 16.7997 15.2566 18.7557 15.2508 21.144C15.242 25.3258 15.2392 25.4941 15.1869 25.5927C15.1115 25.7349 15.0535 25.7929 14.9315 25.8569C14.8387 25.9032 14.7574 25.912 14.3192 25.912H13.8172L13.6836 25.8278C13.6009 25.776 13.5337 25.7028 13.4891 25.616L13.4283 25.4854L13.4342 19.6669L13.4428 13.8455L13.5328 13.7322C13.5792 13.6714 13.6779 13.593 13.7475 13.5553C13.8664 13.4973 13.9129 13.4915 14.4149 13.4915C15.007 13.4915 15.1056 13.5146 15.2595 13.683C15.303 13.7294 16.9136 16.1555 18.8406 19.0778C20.7914 22.0357 22.7435 24.9928 24.6967 27.9491L27.0474 31.51L27.1664 31.4316C28.2198 30.7467 29.3342 29.7717 30.2164 28.7559C32.094 26.5997 33.3042 23.9706 33.7105 21.1672C33.8294 20.3518 33.8439 20.1109 33.8439 19.0052C33.8439 17.8996 33.8294 17.6587 33.7105 16.8432C32.9037 11.2685 28.9366 6.58468 23.5563 4.8493C22.6073 4.54159 21.5975 4.32977 20.4657 4.20211C20.1871 4.17302 18.2688 4.14126 18.028 4.16441L18.0279 4.16426ZM24.1046 13.1431C24.2439 13.2127 24.3571 13.3462 24.3978 13.4854C24.4209 13.561 24.4267 15.1745 24.4209 18.8106L24.4122 24.0285L23.4923 22.618L22.5695 21.2077V17.4148C22.5695 14.9626 22.5811 13.5841 22.5984 13.5173C22.6449 13.3549 22.7464 13.2273 22.8858 13.1517C23.0047 13.0908 23.0483 13.0849 23.5039 13.0849C23.9335 13.0849 24.0089 13.0908 24.1046 13.1431Z" fill="white"/>
</g>
<path d="M51.75 28H49.875V13H53.166L66.916 26.125V13H68.791V28H66.291L51.75 14.5625V28ZM78.4883 28.2148C77.2383 28.2148 76.1771 28.1302 75.3047 27.9609C74.4323 27.7852 73.7227 27.4857 73.1758 27.0625C72.6289 26.6393 72.2318 26.0729 71.9844 25.3633C71.737 24.6536 71.6133 23.7617 71.6133 22.6875C71.6133 21.457 71.737 20.4414 71.9844 19.6406C72.2318 18.8333 72.6289 18.1921 73.1758 17.7168C73.7227 17.2415 74.4323 16.9095 75.3047 16.7207C76.1771 16.5319 77.2383 16.4375 78.4883 16.4375C79.3802 16.4375 80.1517 16.5026 80.8027 16.6328C81.4603 16.763 82.0202 16.9518 82.4824 17.1992C82.9512 17.4466 83.3288 17.7461 83.6152 18.0977C83.9082 18.4492 84.1361 18.8203 84.2988 19.2109C84.4681 19.5951 84.582 20.0475 84.6406 20.5684C84.7057 21.0892 84.7383 21.6393 84.7383 22.2188L84.582 22.8438H73.4883C73.4883 23.7031 73.5729 24.4095 73.7422 24.9629C73.9115 25.5098 74.1914 25.9102 74.582 26.1641C74.9727 26.418 75.487 26.5807 76.125 26.6523C76.763 26.7174 77.5508 26.75 78.4883 26.75C79.3477 26.75 80.0573 26.7272 80.6172 26.6816C81.1836 26.6296 81.6328 26.5352 81.9648 26.3984C82.2969 26.2617 82.528 26.0729 82.6582 25.832C82.7949 25.5846 82.8633 25.2656 82.8633 24.875H84.7383C84.7383 25.4805 84.6309 25.998 84.416 26.4277C84.2077 26.8509 83.8594 27.196 83.3711 27.4629C82.8828 27.7233 82.2383 27.9121 81.4375 28.0293C80.6432 28.153 79.6602 28.2148 78.4883 28.2148ZM78.4883 18C77.8633 18 77.3034 18.013 76.8086 18.0391C76.3203 18.0651 75.8906 18.1237 75.5195 18.2148C75.1549 18.2995 74.8424 18.4264 74.582 18.5957C74.3216 18.7585 74.11 18.9538 73.9473 19.1816C73.791 19.403 73.6738 19.7188 73.5957 20.1289C73.5241 20.5326 73.4883 21.0208 73.4883 21.5938H82.8633C82.8633 20.832 82.7819 20.2363 82.6191 19.8066C82.4564 19.3704 82.1992 19.0124 81.8477 18.7324C81.4961 18.4525 81.0436 18.2604 80.4902 18.1562C79.9368 18.0521 79.2695 18 78.4883 18ZM97.5117 28H100.012L94.25 22.2676L99.7383 16.75H97.2383L93.0488 21.0957L88.7617 16.75H86.2617L91.75 22.2773L85.9883 28H88.4883L93 23.293L97.5117 28ZM113.137 23C113.137 23.957 113.059 24.7578 112.902 25.4023C112.746 26.0404 112.482 26.5514 112.111 26.9355C111.747 27.3197 111.265 27.5931 110.666 27.7559C110.067 27.9186 109.328 28 108.449 28C107.596 28 106.88 27.9349 106.301 27.8047C105.721 27.6745 105.253 27.4531 104.895 27.1406C104.536 26.8281 104.279 26.4115 104.123 25.8906C103.967 25.3698 103.889 24.7188 103.889 23.9375V18.293H101.574V16.75H103.889V13.6738H105.764V16.75H112.824V18.293H105.764V23.9375C105.764 24.5625 105.809 25.0443 105.9 25.3828C105.998 25.7214 106.151 25.9688 106.359 26.125C106.568 26.2812 106.841 26.3724 107.18 26.3984C107.525 26.4245 107.945 26.4375 108.439 26.4375C108.83 26.4375 109.178 26.431 109.484 26.418C109.797 26.4049 110.067 26.3659 110.295 26.3008C110.529 26.2292 110.728 26.125 110.891 25.9883C111.053 25.8451 111.184 25.6465 111.281 25.3926C111.385 25.1387 111.46 24.8197 111.506 24.4355C111.551 24.0449 111.574 23.5664 111.574 23H113.137ZM116.262 28V13H118.137V26.4375H130.012V28H116.262ZM137.199 28.2148C135.949 28.2148 134.888 28.1302 134.016 27.9609C133.143 27.7852 132.434 27.4857 131.887 27.0625C131.34 26.6393 130.943 26.0729 130.695 25.3633C130.448 24.6536 130.324 23.7617 130.324 22.6875C130.324 21.457 130.448 20.4414 130.695 19.6406C130.943 18.8333 131.34 18.1921 131.887 17.7168C132.434 17.2415 133.143 16.9095 134.016 16.7207C134.888 16.5319 135.949 16.4375 137.199 16.4375C138.091 16.4375 138.863 16.5026 139.514 16.6328C140.171 16.763 140.731 16.9518 141.193 17.1992C141.662 17.4466 142.04 17.7461 142.326 18.0977C142.619 18.4492 142.847 18.8203 143.01 19.2109C143.179 19.5951 143.293 20.0475 143.352 20.5684C143.417 21.0892 143.449 21.6393 143.449 22.2188L143.293 22.8438H132.199C132.199 23.7031 132.284 24.4095 132.453 24.9629C132.622 25.5098 132.902 25.9102 133.293 26.1641C133.684 26.418 134.198 26.5807 134.836 26.6523C135.474 26.7174 136.262 26.75 137.199 26.75C138.059 26.75 138.768 26.7272 139.328 26.6816C139.895 26.6296 140.344 26.5352 140.676 26.3984C141.008 26.2617 141.239 26.0729 141.369 25.832C141.506 25.5846 141.574 25.2656 141.574 24.875H143.449C143.449 25.4805 143.342 25.998 143.127 26.4277C142.919 26.8509 142.57 27.196 142.082 27.4629C141.594 27.7233 140.949 27.9121 140.148 28.0293C139.354 28.153 138.371 28.2148 137.199 28.2148ZM137.199 18C136.574 18 136.014 18.013 135.52 18.0391C135.031 18.0651 134.602 18.1237 134.23 18.2148C133.866 18.2995 133.553 18.4264 133.293 18.5957C133.033 18.7585 132.821 18.9538 132.658 19.1816C132.502 19.403 132.385 19.7188 132.307 20.1289C132.235 20.5326 132.199 21.0208 132.199 21.5938H141.574C141.574 20.832 141.493 20.2363 141.33 19.8066C141.167 19.3704 140.91 19.0124 140.559 18.7324C140.207 18.4525 139.755 18.2604 139.201 18.1562C138.648 18.0521 137.98 18 137.199 18ZM157.15 26.457C157.131 26.5352 156.984 26.7305 156.711 27.043C156.516 27.2773 156.255 27.4857 155.93 27.668C155.604 27.8438 155.168 27.9805 154.621 28.0781C154.081 28.1823 153.368 28.2344 152.482 28.2344C151.304 28.2344 150.298 28.1725 149.465 28.0488C148.632 27.9316 147.951 27.7493 147.424 27.502C146.896 27.248 146.509 26.9258 146.262 26.5352C146.021 26.1445 145.9 25.679 145.9 25.1387C145.9 24.5723 145.965 24.0938 146.096 23.7031C146.232 23.306 146.428 22.974 146.682 22.707C146.942 22.4401 147.255 22.2318 147.619 22.082C147.984 21.9323 148.397 21.8184 148.859 21.7402C149.328 21.6621 149.839 21.6133 150.393 21.5938C150.946 21.5742 151.535 21.5645 152.16 21.5645C153.052 21.5645 153.798 21.6035 154.396 21.6816C154.995 21.7533 155.484 21.8477 155.861 21.9648C156.245 22.0755 156.535 22.196 156.73 22.3262C156.926 22.4564 157.066 22.5768 157.15 22.6875C157.15 21.9583 157.118 21.3366 157.053 20.8223C156.994 20.3079 156.893 19.8783 156.75 19.5332C156.613 19.1882 156.434 18.9147 156.213 18.7129C155.992 18.5046 155.718 18.3483 155.393 18.2441C155.074 18.14 154.699 18.0749 154.27 18.0488C153.84 18.0163 153.348 18 152.795 18C151.936 18 151.223 18.0228 150.656 18.0684C150.09 18.1074 149.641 18.1888 149.309 18.3125C148.977 18.4362 148.742 18.6087 148.605 18.8301C148.469 19.0449 148.4 19.3281 148.4 19.6797H146.525C146.525 19.0872 146.63 18.5859 146.838 18.1758C147.053 17.7656 147.404 17.4336 147.893 17.1797C148.387 16.9193 149.035 16.7305 149.836 16.6133C150.637 16.4961 151.623 16.4375 152.795 16.4375C153.941 16.4375 154.911 16.5319 155.705 16.7207C156.499 16.9095 157.141 17.2415 157.629 17.7168C158.124 18.1921 158.479 18.8333 158.693 19.6406C158.915 20.4414 159.025 21.457 159.025 22.6875V28H157.15V26.457ZM152.795 26.75C153.622 26.75 154.312 26.7109 154.865 26.6328C155.425 26.5547 155.874 26.4375 156.213 26.2812C156.551 26.125 156.792 25.9297 156.936 25.6953C157.079 25.4609 157.15 25.1875 157.15 24.875C157.15 24.5625 157.066 24.2988 156.896 24.084C156.734 23.8626 156.457 23.6836 156.066 23.5469C155.682 23.4102 155.171 23.3125 154.533 23.2539C153.895 23.1888 153.107 23.1562 152.17 23.1562C151.232 23.1562 150.474 23.1725 149.895 23.2051C149.322 23.2376 148.879 23.3125 148.566 23.4297C148.254 23.5469 148.042 23.7194 147.932 23.9473C147.827 24.1751 147.775 24.4844 147.775 24.875C147.775 25.2656 147.831 25.5846 147.941 25.832C148.059 26.0729 148.293 26.2617 148.645 26.3984C148.996 26.5352 149.501 26.6296 150.158 26.6816C150.822 26.7272 151.701 26.75 152.795 26.75ZM168.41 16.4375C169.66 16.4375 170.721 16.5319 171.594 16.7207C172.466 16.9095 173.176 17.2318 173.723 17.6875C174.27 18.1432 174.667 18.7552 174.914 19.5234C175.161 20.2852 175.285 21.2422 175.285 22.3945C175.285 23.5273 175.161 24.4681 174.914 25.2168C174.667 25.9655 174.27 26.5612 173.723 27.0039C173.176 27.4466 172.466 27.7591 171.594 27.9414C170.721 28.1237 169.66 28.2148 168.41 28.2148C167.518 28.2148 166.773 28.166 166.174 28.0684C165.575 27.9707 165.083 27.8503 164.699 27.707C164.322 27.5573 164.032 27.3978 163.83 27.2285C163.635 27.0592 163.495 26.8997 163.41 26.75V31.75H161.535V16.75H163.41V17.7949C163.495 17.6647 163.635 17.5215 163.83 17.3652C164.032 17.2025 164.322 17.0527 164.699 16.916C165.083 16.7793 165.575 16.6654 166.174 16.5742C166.773 16.4831 167.518 16.4375 168.41 16.4375ZM168.41 18C167.785 18 167.229 18.0163 166.74 18.0488C166.252 18.0814 165.822 18.1497 165.451 18.2539C165.08 18.3516 164.764 18.498 164.504 18.6934C164.25 18.8822 164.042 19.1393 163.879 19.4648C163.716 19.7839 163.596 20.181 163.518 20.6562C163.446 21.1315 163.41 21.7012 163.41 22.3652C163.41 23.0358 163.446 23.612 163.518 24.0938C163.596 24.5755 163.716 24.9792 163.879 25.3047C164.042 25.6237 164.25 25.8809 164.504 26.0762C164.764 26.265 165.08 26.4115 165.451 26.5156C165.822 26.6133 166.252 26.6784 166.74 26.7109C167.229 26.737 167.785 26.75 168.41 26.75C169.139 26.75 169.768 26.7272 170.295 26.6816C170.829 26.6361 171.281 26.5547 171.652 26.4375C172.023 26.3203 172.323 26.1576 172.551 25.9492C172.785 25.7409 172.964 25.4772 173.088 25.1582C173.218 24.8327 173.303 24.4453 173.342 23.9961C173.387 23.5404 173.41 23.0065 173.41 22.3945C173.41 21.7826 173.387 21.2487 173.342 20.793C173.303 20.3372 173.218 19.9466 173.088 19.6211C172.964 19.2956 172.785 19.0286 172.551 18.8203C172.323 18.612 172.023 18.446 171.652 18.3223C171.281 18.1986 170.829 18.1139 170.295 18.0684C169.768 18.0228 169.139 18 168.41 18Z" fill="white"/>
<defs>
<clipPath id="clip0_9_77">
<rect width="38" height="38" fill="white"/>
</clipPath>
</defs>
</svg>
