<svg width="127" height="60" viewBox="0 0 127 60" fill="none" xmlns="http://www.w3.org/2000/svg">
<path d="M68 21C67.45 21 66.9793 20.8043 66.588 20.413C66.196 20.021 66 19.55 66 19V18H64C63.45 18 62.9793 17.8043 62.588 17.413C62.196 17.021 62 16.55 62 16V8H60V9C60 9.55 59.804 10.0207 59.412 10.412C59.0207 10.804 58.55 11 58 11H55C54.45 11 53.9793 10.804 53.588 10.412C53.196 10.0207 53 9.55 53 9V5C53 4.45 53.196 3.979 53.588 3.587C53.9793 3.19567 54.45 3 55 3H58C58.55 3 59.0207 3.19567 59.412 3.587C59.804 3.979 60 4.45 60 5V6H66V5C66 4.45 66.196 3.979 66.588 3.587C66.9793 3.19567 67.45 3 68 3H71C71.55 3 72.021 3.19567 72.413 3.587C72.8043 3.979 73 4.45 73 5V9C73 9.55 72.8043 10.0207 72.413 10.412C72.021 10.804 71.55 11 71 11H68C67.45 11 66.9793 10.804 66.588 10.412C66.196 10.0207 66 9.55 66 9V8H64V16H66V15C66 14.45 66.196 13.979 66.588 13.587C66.9793 13.1957 67.45 13 68 13H71C71.55 13 72.021 13.1957 72.413 13.587C72.8043 13.979 73 14.45 73 15V19C73 19.55 72.8043 20.021 72.413 20.413C72.021 20.8043 71.55 21 71 21H68Z" fill="black"/>
<path d="M5.51758 43.1953H4.61914V45.5586C5.58268 45.7734 6.18815 46.0339 6.43555 46.3398L6.23047 48H0.830078L0.634766 46.3398C0.810547 46.112 1.17839 45.8906 1.73828 45.6758V36.5352C1.1849 36.3398 0.817057 36.1152 0.634766 35.8613L0.830078 34.2012H6.13281C7.36979 34.2142 8.39518 34.3639 9.20898 34.6504C10.0293 34.9303 10.6413 35.3926 11.0449 36.0371C11.4486 36.6816 11.6504 37.5573 11.6504 38.6641C11.6504 41.6849 9.60612 43.1953 5.51758 43.1953ZM5.81055 36.3789H4.61914V41.0176H5.95703C6.86198 41.0176 7.53581 40.8385 7.97852 40.4805C8.42773 40.1159 8.65234 39.4909 8.65234 38.6055C8.65234 37.7135 8.4082 37.1211 7.91992 36.8281C7.43815 36.5286 6.73503 36.3789 5.81055 36.3789ZM18.6426 40.4609C17.64 40.4609 16.9401 40.653 16.543 41.0371V45.6172C17.6367 45.8255 18.3789 46.1055 18.7695 46.457L18.5645 48H12.8418L12.6465 46.457C12.8288 46.2031 13.1966 45.9785 13.75 45.7832V40.2168C13.2747 40.0605 12.9069 39.8359 12.6465 39.543L12.8418 38C13.5579 37.8372 14.2188 37.7559 14.8242 37.7559C15.1172 37.7559 15.3841 37.7624 15.625 37.7754C15.8724 37.7819 16.0938 37.7917 16.2891 37.8047V39.0645C16.5951 38.6999 16.9889 38.4004 17.4707 38.166C17.8743 37.9772 18.278 37.8665 18.6816 37.834C19.0853 37.8014 19.388 37.8307 19.5898 37.9219L19.5312 40.5195C19.2708 40.4805 18.9746 40.4609 18.6426 40.4609ZM30 42.7559C30 44.0579 29.7786 45.1061 29.3359 45.9004C28.8932 46.6882 28.291 47.2611 27.5293 47.6191C26.7741 47.9707 25.9212 48.1465 24.9707 48.1465C23.4863 48.1465 22.3438 47.7526 21.543 46.9648C20.7487 46.1706 20.3516 44.8392 20.3516 42.9707C20.3516 41.291 20.791 40.0182 21.6699 39.1523C22.5553 38.2799 23.763 37.8438 25.293 37.8438C26.8555 37.8438 28.0306 38.2279 28.8184 38.9961C29.6061 39.7643 30 41.0176 30 42.7559ZM23.2617 42.9219C23.2617 45.0508 23.903 46.1152 25.1855 46.1152C25.8366 46.1152 26.3184 45.8743 26.6309 45.3926C26.9434 44.9043 27.0996 44.1068 27.0996 43C27.0996 40.9232 26.4453 39.8848 25.1367 39.8848C24.4987 39.8848 24.0267 40.1159 23.7207 40.5781C23.4147 41.0339 23.2617 41.8151 23.2617 42.9219ZM36.0059 35.3438L36.2012 33.8008C36.9629 33.625 37.6921 33.5371 38.3887 33.5371C39.0788 33.5371 39.6712 33.5566 40.166 33.5957V45.5977C40.5762 45.6693 40.944 45.7832 41.2695 45.9395V47.5215C40.4622 47.9447 39.4466 48.1562 38.2227 48.1562C38.0924 48.0911 37.9622 47.974 37.832 47.8047C37.7083 47.6289 37.64 47.4596 37.627 47.2969C37.334 47.5378 36.9531 47.7428 36.4844 47.9121C36.0156 48.0749 35.5566 48.1562 35.1074 48.1562C33.6686 48.1562 32.6237 47.7689 31.9727 46.9941C31.3281 46.2129 31.0059 44.9336 31.0059 43.1562C31.0059 41.1445 31.5007 39.7318 32.4902 38.918C33.3626 38.2018 34.4271 37.8438 35.6836 37.8438C36.2305 37.8438 36.7904 37.9089 37.3633 38.0391V36.0566C36.7578 35.8939 36.3053 35.6562 36.0059 35.3438ZM35.5273 46.1152C36.2956 46.1152 36.9076 45.8906 37.3633 45.4414V40.0801C36.8034 39.9499 36.224 39.8848 35.625 39.8848C35.013 39.8848 34.5703 40.1517 34.2969 40.6855C34.0234 41.2194 33.8867 42.0267 33.8867 43.1074C33.8867 44.1816 34.0202 44.9531 34.2871 45.4219C34.554 45.8841 34.9674 46.1152 35.5273 46.1152ZM42.1387 39.543L42.334 38C43.0892 37.8242 43.7858 37.7363 44.4238 37.7363C44.7428 37.7363 45.0358 37.7428 45.3027 37.7559C45.5697 37.7624 45.8138 37.7786 46.0352 37.8047V45.7832C46.556 45.9785 46.9238 46.2031 47.1387 46.457L46.9434 48H42.334L42.1387 46.457C42.321 46.2031 42.6888 45.9785 43.2422 45.7832V40.2168C42.7669 40.0605 42.3991 39.8359 42.1387 39.543ZM52.5391 50.1191C53.724 50.1191 54.3164 49.4062 54.3164 47.9805V47.1016C53.6654 47.4987 52.8451 47.6973 51.8555 47.6973C50.6055 47.6973 49.6419 47.3327 48.9648 46.6035C48.2943 45.8678 47.959 44.6471 47.959 42.9414C47.959 39.543 49.5182 37.8438 52.6367 37.8438C53.431 37.8438 54.1797 38.0163 54.8828 38.3613C55.0065 38.1204 55.2051 38 55.4785 38H57.1191V47.8438C57.1191 49.3086 56.7546 50.3926 56.0254 51.0957C55.3027 51.8053 54.1797 52.1602 52.6562 52.1602C52.1224 52.1602 51.569 52.1178 50.9961 52.0332C50.4297 51.9486 49.9023 51.8314 49.4141 51.6816C48.9258 51.5319 48.5352 51.3659 48.2422 51.1836C48.2357 51.1185 48.2292 51.0566 48.2227 50.998C48.2227 50.9395 48.2227 50.8809 48.2227 50.8223C48.2227 50.0866 48.3952 49.3802 48.7402 48.7031H50.498C50.6478 48.9831 50.7552 49.3542 50.8203 49.8164C51.3216 50.0182 51.8945 50.1191 52.5391 50.1191ZM50.7227 42.8242C50.7227 43.8138 50.8594 44.5104 51.1328 44.9141C51.3216 45.1875 51.6016 45.3665 51.9727 45.4512C52.3438 45.5358 52.7409 45.5358 53.1641 45.4512C53.5938 45.36 53.9779 45.1973 54.3164 44.9629V40.2168C53.7891 39.9954 53.2096 39.8848 52.5781 39.8848C51.3411 39.8848 50.7227 40.8646 50.7227 42.8242ZM61.0645 50.3242H61.3477C61.5885 50.3242 61.8457 50.0996 62.1191 49.6504C62.3926 49.2012 62.5814 48.6706 62.6855 48.0586L59.4043 40.3047C58.7533 40.0898 58.3138 39.8359 58.0859 39.543L58.2812 38H62.8906L63.0859 39.543C62.9036 39.7513 62.6107 39.9434 62.207 40.1191L63.3105 43.1367C63.5449 43.7747 63.7109 44.3965 63.8086 45.002L63.8672 45.2754H64.1504C64.2611 44.6048 64.4466 43.9049 64.707 43.1758L65.7617 40.2168C65.2799 40.0345 64.9349 39.8099 64.7266 39.543L64.9219 38H69.3262L69.5215 39.543C69.2806 39.849 68.8411 40.1094 68.2031 40.3242L64.9023 48.1172C64.2773 49.6081 63.7988 50.5618 63.4668 50.9785C62.8809 51.7663 62.0638 52.1602 61.0156 52.1602C59.9674 52.1602 59.1699 51.8867 58.623 51.3398C58.6165 51.2747 58.61 51.2064 58.6035 51.1348C58.6035 51.0697 58.6035 51.0046 58.6035 50.9395C58.6035 50.2168 58.7565 49.5234 59.0625 48.8594H60.7227C60.918 49.2109 61.0319 49.6992 61.0645 50.3242ZM78.6133 40.5195L76.9336 48.0977H73.8477L70.6543 36.5352C70.1009 36.3398 69.7331 36.1152 69.5508 35.8613L69.7461 34.2012H74.375L74.5703 35.8613C74.3359 36.1348 73.9746 36.3529 73.4863 36.5156L74.9121 42.4238C75.127 43.2702 75.293 44.1165 75.4102 44.9629L75.4492 45.3047H75.7324C75.7454 44.5104 75.8724 43.5632 76.1133 42.4629L77.9102 34.3379H80.9668L82.7734 42.4238C82.9753 43.3874 83.1217 44.2337 83.2129 44.9629L83.252 45.3242H83.5352C83.5677 44.4974 83.7272 43.5436 84.0137 42.4629L85.5859 36.6035C85.0195 36.3952 84.6354 36.1478 84.4336 35.8613L84.6289 34.2012H89.0527L89.248 35.8613C89.0007 36.1738 88.5547 36.4342 87.9102 36.6426L84.5508 48.0977H81.4062L79.7949 40.5391C79.7038 40.0833 79.6224 39.6374 79.5508 39.2012C79.4792 38.7585 79.4206 38.319 79.375 37.8828L79.3262 37.4824H79.0527C79.0007 38.4069 78.8542 39.4193 78.6133 40.5195ZM97.9688 42.7559C97.9688 44.0579 97.7474 45.1061 97.3047 45.9004C96.862 46.6882 96.2598 47.2611 95.498 47.6191C94.7428 47.9707 93.89 48.1465 92.9395 48.1465C91.4551 48.1465 90.3125 47.7526 89.5117 46.9648C88.7174 46.1706 88.3203 44.8392 88.3203 42.9707C88.3203 41.291 88.7598 40.0182 89.6387 39.1523C90.5241 38.2799 91.7318 37.8438 93.2617 37.8438C94.8242 37.8438 95.9993 38.2279 96.7871 38.9961C97.5749 39.7643 97.9688 41.0176 97.9688 42.7559ZM91.2305 42.9219C91.2305 45.0508 91.8717 46.1152 93.1543 46.1152C93.8053 46.1152 94.2871 45.8743 94.5996 45.3926C94.9121 44.9043 95.0684 44.1068 95.0684 43C95.0684 40.9232 94.4141 39.8848 93.1055 39.8848C92.4674 39.8848 91.9954 40.1159 91.6895 40.5781C91.3835 41.0339 91.2305 41.8151 91.2305 42.9219ZM104.971 40.4609C103.968 40.4609 103.268 40.653 102.871 41.0371V45.6172C103.965 45.8255 104.707 46.1055 105.098 46.457L104.893 48H99.1699L98.9746 46.457C99.1569 46.2031 99.5247 45.9785 100.078 45.7832V40.2168C99.6029 40.0605 99.235 39.8359 98.9746 39.543L99.1699 38C99.8861 37.8372 100.547 37.7559 101.152 37.7559C101.445 37.7559 101.712 37.7624 101.953 37.7754C102.201 37.7819 102.422 37.7917 102.617 37.8047V39.0645C102.923 38.6999 103.317 38.4004 103.799 38.166C104.202 37.9772 104.606 37.8665 105.01 37.834C105.413 37.8014 105.716 37.8307 105.918 37.9219L105.859 40.5195C105.599 40.4805 105.303 40.4609 104.971 40.4609ZM106.484 35.3438L106.68 33.8008C107.435 33.625 108.132 33.5371 108.77 33.5371C109.408 33.5371 109.945 33.5566 110.381 33.5957V45.7832C110.902 45.9785 111.27 46.2031 111.484 46.457L111.289 48H106.68L106.484 46.457C106.667 46.2031 107.035 45.9785 107.588 45.7832V36.0176C107.113 35.8613 106.745 35.6367 106.484 35.3438ZM117.5 46.457L117.305 48H114.102L110.566 42.8242L112.764 39.9629C112.523 39.8197 112.363 39.6797 112.285 39.543L112.48 38H116.885L117.08 39.543C116.787 39.9141 116.234 40.207 115.42 40.4219L113.506 42.6191L115.762 45.5977C116.582 45.7799 117.161 46.0664 117.5 46.457ZM122.07 39.6406C121.191 39.6406 120.752 39.901 120.752 40.4219C120.752 40.9167 121.214 41.2812 122.139 41.5156L123.711 41.9355C125.339 42.3652 126.152 43.306 126.152 44.7578C126.152 45.7539 125.804 46.571 125.107 47.209C124.756 47.5215 124.284 47.7559 123.691 47.9121C123.099 48.0618 122.461 48.1432 121.777 48.1562C121.1 48.1693 120.443 48.1204 119.805 48.0098C119.167 47.8991 118.63 47.7363 118.193 47.5215C118.187 47.4499 118.18 47.3783 118.174 47.3066C118.174 47.2285 118.174 47.1536 118.174 47.082C118.174 46.3464 118.32 45.6855 118.613 45.0996H120.273C120.456 45.4316 120.57 45.7637 120.615 46.0957C120.869 46.1803 121.25 46.2227 121.758 46.2227C122.93 46.2227 123.516 45.8874 123.516 45.2168C123.516 45.0085 123.438 44.8327 123.281 44.6895C123.112 44.5527 122.796 44.416 122.334 44.2793L120.752 43.8203C119.938 43.5924 119.303 43.2572 118.848 42.8145C118.398 42.3652 118.174 41.7044 118.174 40.832C118.174 39.9531 118.529 39.237 119.238 38.6836C119.59 38.4036 120.029 38.1953 120.557 38.0586C121.09 37.9219 121.66 37.8503 122.266 37.8438C122.871 37.8307 123.464 37.8763 124.043 37.9805C124.622 38.0781 125.14 38.2246 125.596 38.4199C125.602 38.485 125.605 38.5501 125.605 38.6152C125.612 38.6803 125.615 38.7487 125.615 38.8203C125.615 39.5039 125.469 40.1452 125.176 40.7441H123.535C123.353 40.4251 123.239 40.1029 123.193 39.7773C122.809 39.6862 122.435 39.6406 122.07 39.6406Z" fill="black"/>
</svg>
