<svg xmlns="http://www.w3.org/2000/svg" xmlns:xlink="http://www.w3.org/1999/xlink" width="500" zoomAndPan="magnify" viewBox="0 0 375 374.999991" height="500" preserveAspectRatio="xMidYMid meet" version="1.0"><defs><g/><clipPath id="443ec2d64f"><path d="M 185 124 L 250 124 L 250 160.617188 L 185 160.617188 Z M 185 124 " clip-rule="nonzero"/></clipPath><clipPath id="86a95aed7b"><path d="M 112.296875 87.824219 L 262.773438 87.824219 L 262.773438 147 L 112.296875 147 Z M 112.296875 87.824219 " clip-rule="nonzero"/></clipPath></defs><rect x="-37.5" width="450" fill="#ffffff" y="-37.499999" height="449.999989" fill-opacity="1"/><rect x="-37.5" width="450" fill="#ffffff" y="-37.499999" height="449.999989" fill-opacity="1"/><rect x="-37.5" width="450" fill="#ffffff" y="-37.499999" height="449.999989" fill-opacity="1"/><path fill="#233dff" d="M 138.460938 152.460938 C 179.925781 161.738281 209.308594 107.023438 246.1875 121.488281 C 233.273438 118.652344 216.28125 126.027344 195.210938 143.613281 C 172.671875 159.949219 153.753906 162.898438 138.460938 152.460938 Z M 138.460938 152.460938 " fill-opacity="1" fill-rule="evenodd"/><g clip-path="url(#443ec2d64f)"><path fill="#233dff" d="M 249.605469 128.582031 C 227.5625 111.828125 206.898438 153.144531 185.050781 158.289062 C 206.949219 171.589844 224.007812 123.34375 249.605469 128.582031 Z M 249.605469 128.582031 " fill-opacity="1" fill-rule="evenodd"/></g><g clip-path="url(#86a95aed7b)"><path fill="#cae8ff" d="M 262.742188 124.4375 C 221.703125 69.210938 156.632812 146.957031 138.164062 121.59375 C 123.078125 100.882812 160.964844 88.960938 172.851562 108.933594 C 152.59375 64.414062 92.644531 98.8125 118.84375 134.125 C 135.261719 156.257812 163.128906 144.625 186.085938 129.882812 C 208.785156 115.304688 236.050781 102.742188 262.742188 124.4375 Z M 262.742188 124.4375 " fill-opacity="1" fill-rule="evenodd"/></g><g fill="#f4f6fc" fill-opacity="1"><g transform="translate(107.975165, 207.264637)"><g><path d="M 4.203125 0 L 10.023438 0 L 10.023438 -13.535156 L 14.433594 -13.535156 C 21.085938 -13.535156 25.960938 -16.882812 25.960938 -22.980469 C 25.960938 -29.148438 21.085938 -32.636719 14.433594 -32.636719 L 4.203125 -32.636719 Z M 10.023438 -19.007812 L 10.023438 -27.160156 L 14.433594 -27.160156 C 18.40625 -27.160156 20.140625 -25.636719 20.140625 -22.980469 C 20.140625 -20.394531 18.453125 -19.007812 14.433594 -19.007812 Z M 10.023438 -19.007812 "/></g></g></g><g fill="#f4f6fc" fill-opacity="1"><g transform="translate(134.928452, 207.264637)"><g><path d="M 3.347656 0 L 8.800781 0 L 8.800781 -9.746094 C 8.800781 -15.613281 11.546875 -18.0625 14.179688 -18.0625 C 15.082031 -18.0625 15.9375 -17.785156 16.699219 -17.277344 L 19.261719 -21.894531 C 18.152344 -23.027344 16.558594 -23.558594 15.035156 -23.558594 C 12.449219 -23.558594 9.839844 -21.988281 8.847656 -19.195312 L 8.847656 -23.074219 L 3.347656 -23.074219 Z M 3.347656 0 "/></g></g></g><g fill="#f4f6fc" fill-opacity="1"><g transform="translate(153.751872, 207.264637)"><g><path d="M 13.003906 0.460938 C 20.140625 0.460938 24.828125 -5.058594 24.828125 -11.59375 C 24.828125 -18.109375 20.140625 -23.558594 13.003906 -23.558594 C 5.867188 -23.558594 1.179688 -18.109375 1.179688 -11.59375 C 1.179688 -5.058594 5.867188 0.460938 13.003906 0.460938 Z M 13.003906 -4.386719 C 8.753906 -4.386719 7.042969 -7.808594 7.042969 -11.59375 C 7.042969 -15.382812 8.753906 -18.683594 13.003906 -18.683594 C 17.277344 -18.683594 18.960938 -15.382812 18.960938 -11.59375 C 18.960938 -7.808594 17.277344 -4.386719 13.003906 -4.386719 Z M 13.003906 -4.386719 "/></g></g></g><g fill="#f4f6fc" fill-opacity="1"><g transform="translate(179.804401, 207.264637)"><g><path d="M 17.921875 -32.636719 L 17.921875 -20.765625 C 16.328125 -22.75 13.765625 -23.558594 11.363281 -23.558594 C 4.964844 -23.558594 1.457031 -17.921875 1.457031 -11.546875 C 1.457031 -5.105469 4.964844 0.460938 11.457031 0.460938 C 14.019531 0.460938 16.558594 -0.414062 18.152344 -2.585938 L 18.40625 0 L 23.652344 0 L 23.652344 -32.636719 Z M 12.820312 -4.640625 C 8.9375 -4.640625 7.183594 -7.667969 7.183594 -11.546875 C 7.183594 -15.382812 8.9375 -18.453125 12.820312 -18.453125 C 16.699219 -18.453125 18.40625 -15.429688 18.40625 -11.546875 C 18.40625 -7.621094 16.699219 -4.640625 12.820312 -4.640625 Z M 12.820312 -4.640625 "/></g></g></g><g fill="#f4f6fc" fill-opacity="1"><g transform="translate(206.850073, 207.264637)"><g><path d="M 3.210938 -27.4375 L 9.078125 -27.4375 L 9.078125 -32.636719 L 3.210938 -32.636719 Z M 3.347656 0 L 8.9375 0 L 8.9375 -23.074219 L 3.347656 -23.074219 Z M 3.347656 0 "/></g></g></g><g fill="#f4f6fc" fill-opacity="1"><g transform="translate(219.137259, 207.264637)"><g><path d="M 13.902344 -3.601562 C 9.792969 -4.109375 6.953125 -4.15625 6.953125 -6.050781 C 6.953125 -6.582031 7.160156 -6.976562 7.621094 -7.277344 C 8.9375 -6.699219 10.417969 -6.375 12.011719 -6.375 C 17.070312 -6.375 21.386719 -9.65625 21.386719 -14.804688 C 21.386719 -16.304688 21.042969 -17.667969 20.394531 -18.824219 L 23.742188 -21.527344 L 20.808594 -25.105469 L 17.277344 -22.082031 C 15.730469 -23.027344 13.835938 -23.558594 11.824219 -23.558594 C 6.722656 -23.558594 2.355469 -20.09375 2.355469 -15.082031 C 2.355469 -13.050781 3.070312 -11.226562 4.273438 -9.769531 C 2.910156 -8.570312 2.125 -7.066406 2.125 -5.011719 C 2.125 -2.792969 3.027344 -1.386719 4.386719 -0.460938 L 1.984375 1.710938 C 1.941406 1.941406 1.894531 2.171875 1.894531 2.703125 C 1.894531 7.4375 5.867188 10.925781 12.679688 10.925781 C 18.40625 10.925781 22.890625 8.429688 22.890625 3.210938 C 22.890625 -2.078125 18.269531 -3.027344 13.902344 -3.601562 Z M 12.011719 -19.195312 C 14.480469 -19.195312 15.796875 -17.460938 15.796875 -15.035156 C 15.796875 -12.679688 14.527344 -10.972656 12.011719 -10.972656 C 9.515625 -10.972656 8.175781 -12.679688 8.175781 -15.035156 C 8.175781 -17.460938 9.5625 -19.195312 12.011719 -19.195312 Z M 12.726562 6.488281 C 9.421875 6.488281 6.953125 5.289062 6.628906 2.839844 L 7.808594 0.902344 C 9.167969 1.222656 10.625 1.363281 11.917969 1.523438 C 15.566406 1.941406 17.554688 2.171875 17.554688 3.878906 C 17.554688 5.542969 15.660156 6.488281 12.726562 6.488281 Z M 12.726562 6.488281 "/></g></g></g><g fill="#f4f6fc" fill-opacity="1"><g transform="translate(243.365193, 207.264637)"><g><path d="M 4.640625 9.929688 L 10.785156 9.929688 L 23.972656 -23.074219 L 17.785156 -23.074219 L 11.871094 -7.042969 L 6.050781 -23.074219 L -0.136719 -23.074219 L 8.890625 -0.625 Z M 4.640625 9.929688 "/></g></g></g><g fill="#f4f6fc" fill-opacity="1"><g transform="translate(118.526864, 273.327444)"><g><path d="M 10.371094 0 L 16.027344 0 L 23.121094 -21.480469 L 30.234375 0 L 35.890625 0 L 45.683594 -32.636719 L 39.585938 -32.636719 L 32.636719 -8.613281 L 25.40625 -30.742188 L 20.855469 -30.742188 L 13.628906 -8.613281 L 6.675781 -32.636719 L 0.578125 -32.636719 Z M 10.371094 0 "/></g></g></g><g fill="#f4f6fc" fill-opacity="1"><g transform="translate(164.788586, 273.327444)"><g><path d="M 13.003906 0.460938 C 20.140625 0.460938 24.828125 -5.058594 24.828125 -11.59375 C 24.828125 -18.109375 20.140625 -23.558594 13.003906 -23.558594 C 5.867188 -23.558594 1.179688 -18.109375 1.179688 -11.59375 C 1.179688 -5.058594 5.867188 0.460938 13.003906 0.460938 Z M 13.003906 -4.386719 C 8.753906 -4.386719 7.042969 -7.808594 7.042969 -11.59375 C 7.042969 -15.382812 8.753906 -18.683594 13.003906 -18.683594 C 17.277344 -18.683594 18.960938 -15.382812 18.960938 -11.59375 C 18.960938 -7.808594 17.277344 -4.386719 13.003906 -4.386719 Z M 13.003906 -4.386719 "/></g></g></g><g fill="#f4f6fc" fill-opacity="1"><g transform="translate(190.841115, 273.327444)"><g><path d="M 3.347656 0 L 8.800781 0 L 8.800781 -9.746094 C 8.800781 -15.613281 11.546875 -18.0625 14.179688 -18.0625 C 15.082031 -18.0625 15.9375 -17.785156 16.699219 -17.277344 L 19.261719 -21.894531 C 18.152344 -23.027344 16.558594 -23.558594 15.035156 -23.558594 C 12.449219 -23.558594 9.839844 -21.988281 8.847656 -19.195312 L 8.847656 -23.074219 L 3.347656 -23.074219 Z M 3.347656 0 "/></g></g></g><g fill="#f4f6fc" fill-opacity="1"><g transform="translate(209.664535, 273.327444)"><g><path d="M 3.394531 0 L 9.03125 0 L 9.03125 -6.765625 L 12.585938 -10.695312 L 19.355469 0 L 26.007812 0 L 16.421875 -14.136719 L 25.058594 -23.074219 L 17.738281 -23.074219 L 9.03125 -13.488281 L 9.03125 -32.636719 L 3.394531 -32.636719 Z M 3.394531 0 "/></g></g></g><g fill="#f4f6fc" fill-opacity="1"><g transform="translate(235.486102, 273.327444)"><g><path d="M 10.300781 0.460938 C 14.667969 0.460938 19.308594 -1.894531 19.308594 -7.230469 C 19.308594 -15.707031 7.574219 -13.628906 7.574219 -17.113281 C 7.574219 -18.199219 8.707031 -19.101562 10.554688 -19.101562 C 13.050781 -19.101562 14.34375 -17.601562 15.128906 -16.167969 L 19.492188 -18.546875 C 17.738281 -21.664062 14.710938 -23.558594 10.738281 -23.558594 C 6.28125 -23.558594 2.171875 -21.25 2.171875 -16.375 C 2.171875 -8.222656 13.765625 -10.832031 13.765625 -6.953125 C 13.765625 -5.726562 12.632812 -4.203125 10.023438 -4.203125 C 6.953125 -4.203125 5.726562 -6.328125 5.105469 -7.992188 L 0.625 -6.003906 C 1.753906 -2.449219 5.449219 0.460938 10.300781 0.460938 Z M 10.300781 0.460938 "/></g></g></g><g fill="#233dff" fill-opacity="1"><g transform="translate(167.736043, 300.241927)"><g><path d="M 3.132812 0 L 4.851562 0 L 4.851562 -8.027344 L 7.84375 -8.027344 L 7.84375 -9.5625 L 0.136719 -9.5625 L 0.136719 -8.027344 L 3.132812 -8.027344 Z M 3.132812 0 "/></g></g></g><g fill="#233dff" fill-opacity="1"><g transform="translate(176.830218, 300.241927)"><g><path d="M 1.230469 0 L 7.59375 0 L 7.59375 -1.625 L 2.949219 -1.625 L 2.949219 -3.992188 L 7.277344 -3.992188 L 7.277344 -5.570312 L 2.949219 -5.570312 L 2.949219 -7.984375 L 7.59375 -7.984375 L 7.59375 -9.5625 L 1.230469 -9.5625 Z M 1.230469 0 "/></g></g></g><g fill="#233dff" fill-opacity="1"><g transform="translate(186.364244, 300.241927)"><g><path d="M 5.183594 0.136719 C 7.085938 0.136719 8.609375 -0.832031 9.367188 -2.621094 L 7.777344 -3.269531 C 7.261719 -1.984375 6.417969 -1.496094 5.183594 -1.496094 C 3.132812 -1.496094 2.261719 -2.949219 2.261719 -4.851562 C 2.261719 -6.625 3.132812 -8.082031 5.15625 -8.082031 C 6.402344 -8.082031 7.390625 -7.59375 7.75 -6.335938 L 9.351562 -6.972656 C 8.582031 -8.757812 7.066406 -9.71875 5.171875 -9.71875 C 2.023438 -9.71875 0.554688 -7.402344 0.554688 -4.785156 C 0.554688 -2.160156 2.039062 0.136719 5.183594 0.136719 Z M 5.183594 0.136719 "/></g></g></g><g fill="#233dff" fill-opacity="1"><g transform="translate(197.163686, 300.241927)"><g><path d="M 1.230469 0 L 2.949219 0 L 2.949219 -3.992188 L 7.140625 -3.992188 L 7.140625 0 L 8.859375 0 L 8.859375 -9.5625 L 7.140625 -9.5625 L 7.140625 -5.570312 L 2.949219 -5.570312 L 2.949219 -9.5625 L 1.230469 -9.5625 Z M 1.230469 0 "/></g></g></g></svg>