<svg width="124" height="45" viewBox="0 0 124 45" fill="none" xmlns="http://www.w3.org/2000/svg">
<path d="M17.5296 43.826C15.943 43.8209 14.4706 43.5161 13.1126 42.9118C11.7545 42.3074 10.4978 41.2833 9.34244 39.8396C7.98374 39.4352 6.91303 38.6184 6.13032 37.3892C5.34761 36.16 4.9589 34.7255 4.96418 33.0855C4.96839 31.7788 5.22555 30.593 5.73565 29.5279C6.24575 28.4629 6.96845 27.6252 7.90375 27.0149C8.85239 26.4046 9.94671 26.1015 11.1867 26.1055C12.4267 26.1095 13.5124 26.4196 14.4437 27.036C15.3884 27.6524 16.1124 28.4947 16.6156 29.563C17.1188 30.6313 17.3683 31.8188 17.3641 33.1254C17.3587 34.8054 16.9407 36.2641 16.11 37.5014C15.2927 38.7254 14.1835 39.5219 12.7823 39.8907C12.9802 40.5313 13.345 41.1192 13.8766 41.6542C14.4082 42.2026 15.0068 42.6312 15.6725 42.94C16.3381 43.2622 16.9576 43.4242 17.5309 43.426L17.5296 43.826ZM11.1442 39.3054C12.0108 39.3082 12.7583 39.0573 13.3866 38.5526C14.0282 38.048 14.5172 37.3363 14.8535 36.4173C15.1898 35.4851 15.36 34.3856 15.3641 33.119C15.3682 31.8523 15.2051 30.7584 14.8747 29.8374C14.5444 28.903 14.06 28.1814 13.4217 27.6727C12.7966 27.164 12.0508 26.9083 11.1841 26.9055C10.3175 26.9027 9.56332 27.1536 8.92169 27.6582C8.29339 28.1628 7.81107 28.8813 7.47473 29.8135C7.13844 30.7325 6.96825 31.8252 6.96417 33.0919C6.96009 34.3586 7.12321 35.4591 7.45354 36.3935C7.7839 37.3146 8.2616 38.0294 8.88663 38.5381C9.525 39.0469 10.2775 39.3026 11.1442 39.3054ZM23.1395 39.9441C22.1395 39.9408 21.3204 39.6715 20.6821 39.1361C20.0572 38.6008 19.7468 37.6664 19.7511 36.3331L19.7627 32.7331C19.7649 32.0531 19.6732 31.5528 19.4876 31.2322C19.302 30.8983 18.9292 30.7304 18.3692 30.7286L18.1692 30.728L18.1705 30.328L19.7705 30.3332C20.2638 30.3347 20.6302 30.4026 20.8698 30.5367C21.1228 30.6575 21.302 30.8848 21.4076 31.2184C21.5132 31.5521 21.5649 32.0589 21.5627 32.7389L21.5511 36.3389C21.5481 37.2722 21.7526 37.9596 22.1645 38.4009C22.5898 38.8289 23.1158 39.044 23.7424 39.046C24.4491 39.0483 25.1169 38.6971 25.7458 37.9924L25.7704 30.3525L27.5704 30.3583L27.5401 39.7582L26.5402 39.755L25.8427 38.9528L25.7427 38.9524C25.4618 39.2315 25.0944 39.4704 24.6404 39.6689C24.1998 39.8541 23.6995 39.9459 23.1395 39.9441ZM32.6626 39.9747C32.2359 39.9734 31.8029 39.8853 31.3634 39.7106C30.924 39.5225 30.545 39.2212 30.2263 38.8069C29.921 38.3926 29.7694 37.8454 29.7716 37.1654C29.7749 36.1521 30.2439 35.4336 31.1786 35.0099C32.1266 34.5863 33.3606 34.377 34.8806 34.3819L35.4806 34.3838C35.4848 33.0771 35.3077 32.1832 34.9493 31.7021C34.5908 31.2209 34.0716 30.9792 33.3916 30.977C32.7916 30.9751 32.3112 31.1002 31.9504 31.3524C31.5896 31.6046 31.3348 32.0438 31.1861 32.6699L30.2861 32.667C30.2876 32.2137 30.3154 31.8605 30.3695 31.6073C30.4237 31.3408 30.5645 31.0946 30.7919 30.8687C31.0327 30.6294 31.4266 30.4574 31.9736 30.3525C32.534 30.2343 33.1408 30.1762 33.7942 30.1783C34.8742 30.1818 35.7265 30.4779 36.3513 31.0666C36.9761 31.6419 37.2859 32.7496 37.2806 34.3896L37.2632 39.7896L36.2632 39.7863L35.5661 38.8841L35.4661 38.8838C35.2251 39.1897 34.871 39.4485 34.4036 39.6603C33.9363 39.8722 33.3559 39.977 32.6626 39.9747ZM33.5655 39.0776C34.0055 39.0791 34.3725 38.9736 34.6665 38.7612C34.9605 38.5488 35.2281 38.2563 35.4694 37.8838L35.478 35.1838L34.8781 35.1819C33.8914 35.1787 33.1108 35.3628 32.5363 35.7343C31.9618 36.0925 31.6736 36.5715 31.6716 37.1715C31.6696 37.7849 31.8481 38.2588 32.207 38.5933C32.5793 38.9145 33.0322 39.0759 33.5655 39.0776ZM40.3747 32.7995C40.3769 32.1196 40.2851 31.6193 40.0995 31.2987C39.9139 30.9647 39.5411 30.7969 38.9811 30.795L38.5811 30.7938L38.5824 30.3938L40.3824 30.3996C40.8757 30.4011 41.2488 30.469 41.5017 30.6032C41.768 30.7374 41.9607 30.938 42.0798 31.205L42.1798 31.2054C42.4607 30.9263 42.8215 30.6941 43.2621 30.5088C43.716 30.3103 44.223 30.2119 44.783 30.2137C45.783 30.217 46.5955 30.4862 47.2204 31.0216C47.8587 31.557 48.1757 32.4913 48.1714 33.8247L48.1521 39.8246L46.3521 39.8188L46.3714 33.8189C46.3744 32.8855 46.1633 32.2049 45.738 31.7768C45.3261 31.3355 44.8068 31.1138 44.1801 31.1118C43.4735 31.1095 42.8057 31.4607 42.1767 32.1653L42.1521 39.8053L40.3521 39.7995L40.3747 32.7995ZM53.7103 40.0425C52.9636 40.0401 52.3777 39.8249 51.9524 39.3969C51.5271 38.9688 51.3159 38.3148 51.3187 37.4348L51.3387 31.2349L49.9387 31.2304L49.9413 30.4304L51.3412 30.4349L51.347 28.6349L52.3509 27.4381L53.1509 27.4407L53.1412 30.4407L55.5412 30.4484L55.5386 31.2484L53.1387 31.2407L53.1187 37.4406C53.1148 38.6406 53.5795 39.2421 54.5129 39.2451C54.8329 39.2462 55.0996 39.2137 55.3132 39.1477C55.5401 39.0818 55.7737 38.9825 56.0142 38.85L56.2129 39.2506C55.9055 39.4763 55.5649 39.6685 55.191 39.8273C54.8172 39.9728 54.3236 40.0445 53.7103 40.0425ZM61.1081 40.0664C60.1081 40.0632 59.2889 39.7939 58.6507 39.2585C58.0257 38.7231 57.7154 37.7888 57.7197 36.4554L57.7313 32.8555C57.7335 32.1755 57.6418 31.6752 57.4561 31.3546C57.2705 31.0206 56.8977 30.8528 56.3377 30.851L56.1377 30.8503L56.139 30.4503L57.739 30.4555C58.2324 30.4571 58.5988 30.5249 58.8384 30.659C59.0913 30.7798 59.2706 31.0071 59.3762 31.3408C59.4818 31.6744 59.5335 32.1813 59.5313 32.8613L59.5197 36.4612C59.5167 37.3946 59.7211 38.0819 60.133 38.5232C60.5583 38.9513 61.0843 39.1663 61.711 39.1683C62.4176 39.1706 63.0854 38.8194 63.7144 38.1148L63.739 30.4748L65.539 30.4806L65.5087 39.8806L64.5087 39.8773L63.8113 39.0751L63.7113 39.0748C63.4304 39.3539 63.0629 39.5927 62.609 39.7912C62.1684 39.9765 61.6681 40.0682 61.1081 40.0664ZM68.7144 32.8909C68.7166 32.2109 68.6248 31.7106 68.4392 31.39C68.2536 31.056 67.8808 30.8882 67.3208 30.8864L66.9208 30.8851L66.9221 30.4851L68.7221 30.4909C69.2154 30.4925 69.5885 30.5603 69.8414 30.6945C70.1077 30.8287 70.3004 31.0293 70.4195 31.2963L70.5195 31.2967C70.8004 31.0176 71.1612 30.7854 71.6018 30.6001C72.0557 30.4016 72.5627 30.3032 73.1227 30.305C73.6827 30.3068 74.1624 30.4151 74.5617 30.6297C74.961 30.831 75.2799 31.192 75.5182 31.7128C75.8663 31.2739 76.3074 30.9353 76.8415 30.697C77.389 30.4455 77.9494 30.3206 78.5227 30.3224C79.376 30.3252 80.0552 30.594 80.5601 31.129C81.065 31.664 81.3154 32.5981 81.3111 33.9314L81.2917 39.9314L79.4918 39.9256L79.5111 33.9256C79.5142 32.9656 79.3831 32.2786 79.1177 31.8644C78.8524 31.4368 78.4531 31.2222 77.9198 31.2205C77.5465 31.2193 77.1527 31.358 76.7384 31.6367C76.3243 31.902 76.0166 32.1944 75.8156 32.5137C75.8816 32.7139 75.9135 33.1807 75.9111 33.914L75.8918 39.914L74.0918 39.9082L74.1111 33.9082C74.1142 32.9482 73.9831 32.2612 73.7178 31.847C73.4525 31.4194 73.0531 31.2048 72.5198 31.2031C71.8132 31.2008 71.1454 31.552 70.5164 32.2567L70.4918 39.8966L68.6918 39.8908L68.7144 32.8909Z" fill="white"/>
<path d="M88.2937 40.294C87.5604 40.2916 86.8407 40.1893 86.1347 39.987C85.4287 39.7847 84.8496 39.4962 84.3975 39.1214C83.9587 38.7467 83.7401 38.3193 83.7416 37.8393L83.7485 35.6993L84.1085 35.7005C84.3309 37.0345 84.7678 38.0026 85.4192 38.6047C86.0706 39.1935 86.9697 39.4897 88.1163 39.4934C88.8363 39.4957 89.4502 39.3177 89.958 38.9593C90.4792 38.601 90.7408 38.1018 90.7429 37.4618C90.7447 36.9018 90.5729 36.4146 90.2276 36.0002C89.8822 35.5857 89.3236 35.1506 88.5518 34.6948L86.0965 33.2269C85.2448 32.7174 84.6398 32.2022 84.2815 31.681C83.9365 31.1599 83.7652 30.526 83.7676 29.7793C83.7709 28.7527 84.1269 27.9338 84.8355 27.3228C85.5575 26.6984 86.4985 26.3881 87.6585 26.3919C88.3385 26.394 89.0115 26.4962 89.6775 26.6984C90.3436 26.8872 90.8894 27.1689 91.3148 27.5436C91.7537 27.9051 91.9723 28.3258 91.9708 28.8058L91.9639 30.9457L91.6039 30.9446C91.3815 29.6105 90.9512 28.6558 90.3131 28.0804C89.6883 27.4917 88.8026 27.1955 87.6559 27.1918C87.0426 27.1899 86.502 27.3748 86.0342 27.7466C85.5663 28.1185 85.3314 28.6044 85.3295 29.2044C85.3277 29.751 85.4929 30.2049 85.8251 30.566C86.1706 30.9271 86.7425 31.3489 87.541 31.8315L89.9963 33.2994C90.9012 33.849 91.5395 34.3577 91.9114 34.8256C92.2832 35.2935 92.468 35.8874 92.4656 36.6074C92.462 37.7274 92.0858 38.6262 91.3369 39.3038C90.5881 39.968 89.5737 40.2981 88.2937 40.294ZM94.7937 29.1749C94.7958 28.4949 94.7041 27.9946 94.5185 27.674C94.3329 27.34 93.9601 27.1722 93.4001 27.1704L93.0001 27.1691L93.0014 26.7691L94.8014 26.7749C95.2947 26.7765 95.6612 26.8443 95.9007 26.9784C96.1537 27.0992 96.333 27.3265 96.4385 27.6601C96.5441 27.9938 96.5958 28.5007 96.5936 29.1807L96.5866 31.3806C96.8675 31.1015 97.2282 30.8694 97.6688 30.6841C98.1228 30.4856 98.6298 30.3872 99.1898 30.389C100.19 30.3922 101.002 30.6615 101.627 31.1969C102.265 31.7323 102.582 32.6666 102.578 34L102.559 39.9999L100.759 39.9941L100.778 33.9942C100.781 33.0608 100.57 32.3801 100.145 31.9521C99.7328 31.5108 99.2135 31.2891 98.5869 31.2871C97.8802 31.2848 97.2124 31.636 96.5835 32.3406L96.5589 39.9806L94.7589 39.9748L94.7937 29.1749ZM106.439 29.4124C106.132 29.4114 105.866 29.2839 105.64 29.0298C105.428 28.7758 105.322 28.4754 105.323 28.1288C105.324 27.8488 105.405 27.629 105.565 27.4695C105.739 27.3101 105.966 27.2308 106.246 27.2317C106.553 27.2327 106.812 27.3602 107.025 27.6143C107.251 27.8683 107.363 28.1687 107.362 28.5153C107.361 28.7953 107.274 29.0151 107.1 29.1745C106.939 29.334 106.719 29.4133 106.439 29.4124ZM105.667 33.0099C105.669 32.3299 105.578 31.8296 105.392 31.509C105.207 31.1751 104.834 31.0072 104.274 31.0054L103.874 31.0041L103.875 30.6041L105.675 30.6099C106.168 30.6115 106.535 30.6794 106.774 30.8135C107.027 30.9343 107.207 31.1615 107.312 31.4952C107.418 31.8289 107.469 32.3357 107.467 33.0157L107.445 40.0157L105.645 40.0099L105.667 33.0099ZM110.674 31.426L109.274 31.4215L109.277 30.6215L110.677 30.626L110.679 30.026C110.686 27.7594 111.856 26.6298 114.19 26.6373C115.03 26.64 115.596 26.7419 115.889 26.9428C116.115 27.1169 116.347 27.4176 116.586 27.8451L115.984 28.3431C115.586 27.7418 114.954 27.4398 114.087 27.437C113.021 27.4336 112.484 28.2985 112.479 30.0318L112.477 30.6318L115.277 30.6409L115.274 31.4408L112.474 31.4318L112.447 40.0318L110.647 40.026L110.674 31.426ZM119.784 40.2554C119.038 40.253 118.452 40.0378 118.026 39.6098C117.601 39.1817 117.39 38.5277 117.393 37.6477L117.413 31.4477L116.013 31.4432L116.015 30.6432L117.415 30.6477L117.421 28.8478L118.425 27.651L119.225 27.6536L119.215 30.6535L121.615 30.6613L121.613 31.4613L119.213 31.4535L119.193 37.6535C119.189 38.8535 119.653 39.455 120.587 39.458C120.907 39.459 121.174 39.4266 121.387 39.3606C121.614 39.2946 121.848 39.1954 122.088 39.0628L122.287 39.4635C121.979 39.6892 121.639 39.8814 121.265 40.0402C120.891 40.1857 120.398 40.2574 119.784 40.2554Z" fill="#702456"/>
<path d="M38.1488 25.4707C37.328 27.1411 35.0359 28.3331 31.2525 28.3734C27.5651 28.4127 22.9168 27.3223 18.2307 25.0197C13.5445 22.7171 9.84101 19.7038 7.61903 16.7608C5.33913 13.7412 4.88218 11.1984 5.70294 9.52807C6.5237 7.8577 8.81576 6.6657 12.5992 6.62537C16.2866 6.58606 20.9349 7.67648 25.621 9.97909C30.3072 12.2817 34.0107 15.295 36.2327 18.238C38.5126 21.2576 38.9695 23.8004 38.1488 25.4707Z" stroke="#702456" stroke-width="3"/>
</svg>
