<svg width="38" height="23" viewBox="0 0 38 23" fill="none" xmlns="http://www.w3.org/2000/svg">
<path d="M0.25 2.77H3.38C3.48667 2.77 3.57333 2.80667 3.64 2.88C3.70667 2.95333 3.74 3.05 3.74 3.17V10H2.69C2.46333 10 2.31333 9.96333 2.24 9.89C2.17333 9.81667 2.14 9.66333 2.14 9.43V4.02H0.54C0.346667 4.02 0.25 3.86 0.25 3.54V2.77ZM4.14 2.77H5.74C5.93333 2.77 6.03 2.93 6.03 3.25V4.02H4.14V2.77ZM8.17328 10H8.15328C7.49328 10 7.08661 9.88667 6.93328 9.66C6.85995 9.55333 6.79995 9.45 6.75328 9.35C6.71328 9.25 6.68661 9.09333 6.67328 8.88C6.63995 8.49333 6.62328 8.06333 6.62328 7.59C6.62328 7.11667 6.62661 6.77667 6.63328 6.57C6.63995 6.35667 6.65995 6.14333 6.69328 5.93C6.73328 5.71 6.78328 5.55333 6.84328 5.46C6.90328 5.36 6.99328 5.27 7.11328 5.19C7.23328 5.11 7.37328 5.06 7.53328 5.04C7.69328 5.01333 7.89995 5 8.15328 5H8.17328V10ZM10.8333 8.42V8.93C10.8333 9.64333 10.4699 10 9.74328 10H8.48328V9.25H9.02328C9.16328 9.25 9.24995 9.23 9.28328 9.19C9.31661 9.14333 9.33328 9.06333 9.33328 8.95V8.63C9.33328 8.53 9.34328 8.47333 9.36328 8.46C9.38995 8.44667 9.40661 8.44 9.41328 8.44C9.41995 8.43333 9.43661 8.43 9.46328 8.43C9.49661 8.42333 9.51995 8.42 9.53328 8.42C9.96661 8.42 10.3999 8.42 10.8333 8.42ZM8.48328 5H9.64328C10.1033 5 10.4166 5.09 10.5833 5.27C10.7499 5.45 10.8333 5.71667 10.8333 6.07V6.95C10.8333 7.55 10.5066 7.85 9.85328 7.85H8.38328V7.1H8.92328C9.08328 7.1 9.18995 7.08 9.24328 7.04C9.30328 7 9.33328 6.92333 9.33328 6.81V6.05C9.33328 5.93667 9.31661 5.86 9.28328 5.82C9.24995 5.77333 9.16328 5.75 9.02328 5.75H8.48328V5ZM13.3686 10H13.3486C12.6886 10 12.2819 9.88667 12.1286 9.66C12.0553 9.55333 11.9953 9.45 11.9486 9.35C11.9086 9.25 11.8819 9.09333 11.8686 8.88C11.8353 8.49333 11.8186 8.06333 11.8186 7.59C11.8186 7.11667 11.8219 6.77667 11.8286 6.57C11.8353 6.35667 11.8553 6.14333 11.8886 5.93C11.9286 5.71 11.9786 5.55333 12.0386 5.46C12.0986 5.36 12.1886 5.27 12.3086 5.19C12.4286 5.11 12.5686 5.06 12.7286 5.04C12.8886 5.01333 13.0953 5 13.3486 5H13.3686V10ZM14.5286 8.42C14.9753 8.42 15.3153 8.42 15.5486 8.42C15.7819 8.42 15.9019 8.42333 15.9086 8.43C15.9153 8.43 15.9253 8.43333 15.9386 8.44C15.9586 8.44 15.9719 8.44333 15.9786 8.45C15.9853 8.45667 15.9919 8.46667 15.9986 8.48C16.0053 8.48667 16.0086 8.5 16.0086 8.52C16.0219 8.56667 16.0286 8.60333 16.0286 8.63V8.93C16.0286 9.64333 15.6653 10 14.9386 10H13.6786V9.25H14.2186C14.3586 9.25 14.4453 9.23 14.4786 9.19C14.5119 9.14333 14.5286 9.06333 14.5286 8.95V8.42ZM13.6786 5H14.9386C15.6653 5 16.0286 5.35667 16.0286 6.07V6.75C15.5819 6.75 15.2419 6.75 15.0086 6.75C14.7753 6.75 14.6553 6.75 14.6486 6.75C14.6419 6.74333 14.6286 6.74 14.6086 6.74C14.5953 6.73333 14.5853 6.72667 14.5786 6.72C14.5719 6.71333 14.5653 6.70667 14.5586 6.7C14.5519 6.68667 14.5486 6.67333 14.5486 6.66C14.5353 6.60667 14.5286 6.56667 14.5286 6.54V6.05C14.5286 5.93667 14.5119 5.86 14.4786 5.82C14.4453 5.77333 14.3586 5.75 14.2186 5.75H13.6786V5ZM18.7851 5H20.1851C20.9117 5 21.2751 5.35667 21.2751 6.07V10H20.1351C20.0284 10 19.9417 9.96333 19.8751 9.89C19.8084 9.81667 19.7751 9.72 19.7751 9.6V6.05C19.7751 5.94333 19.7484 5.86667 19.6951 5.82C19.6484 5.77333 19.5384 5.75 19.3651 5.75H18.7851V5ZM17.0351 2.77H17.6451C17.9384 2.77 18.1584 2.84333 18.3051 2.99C18.4584 3.13 18.5351 3.31333 18.5351 3.54V10H17.3951C17.2884 10 17.2017 9.96333 17.1351 9.89C17.0684 9.81667 17.0351 9.72 17.0351 9.6V2.77Z" fill="white"/>
<path d="M17 20.09C16.76 20.09 16.5633 20.0333 16.41 19.92C16.2567 19.8 16.1533 19.6333 16.1 19.42L14.45 13C14.55 12.94 14.6767 12.91 14.83 12.91C15.0233 12.91 15.1867 12.96 15.32 13.06C15.4533 13.1533 15.54 13.2833 15.58 13.45L16.67 18.19L16.51 18.78L16.57 18.8L18.18 13.22C18.2067 13.12 18.2567 13.0433 18.33 12.99C18.41 12.9367 18.5033 12.91 18.61 12.91C18.71 12.91 18.8 12.9367 18.88 12.99C18.96 13.0433 19.0133 13.12 19.04 13.22L20.43 18.23L20.29 18.84L20.35 18.86L21.64 13.45C21.68 13.2833 21.7633 13.1533 21.89 13.06C22.0233 12.96 22.1833 12.91 22.37 12.91C22.5233 12.91 22.6567 12.94 22.77 13L21.12 19.42C21.0667 19.6333 20.96 19.8 20.8 19.92C20.6467 20.0333 20.45 20.09 20.21 20.09L18.5 14.04L18.44 14.06L18.57 14.53L17 20.09ZM24.8268 20.09C24.2535 20.09 23.7901 19.9367 23.4368 19.63C23.0901 19.3233 22.9168 18.92 22.9168 18.42C22.9168 17.9133 23.1001 17.5067 23.4668 17.2C23.8335 16.8867 24.3168 16.73 24.9168 16.73C25.5568 16.73 26.0835 16.9567 26.4968 17.41L26.5368 17.37C26.4635 17.29 26.3801 17.2067 26.2868 17.12V16.7C26.2868 16.36 26.1801 16.0967 25.9668 15.91C25.7535 15.7233 25.4501 15.63 25.0568 15.63C24.3568 15.63 23.8568 15.9067 23.5568 16.46C23.4501 16.4067 23.3601 16.3367 23.2868 16.25C23.2201 16.1567 23.1868 16.0633 23.1868 15.97C23.1868 15.79 23.2768 15.62 23.4568 15.46C23.6368 15.2933 23.8735 15.16 24.1668 15.06C24.4668 14.96 24.7801 14.91 25.1068 14.91C25.7401 14.91 26.2368 15.0667 26.5968 15.38C26.9635 15.6933 27.1468 16.1267 27.1468 16.68V19.42C27.1468 19.6533 27.0801 19.8233 26.9468 19.93C26.8135 20.0367 26.6035 20.09 26.3168 20.09V19.62C26.4568 19.4733 26.5335 19.3867 26.5468 19.36L26.5068 19.32C26.0735 19.8333 25.5135 20.09 24.8268 20.09ZM24.9768 19.4C25.3901 19.4 25.7135 19.3133 25.9468 19.14C26.1868 18.9667 26.3068 18.7267 26.3068 18.42C26.3068 18.1133 26.1901 17.87 25.9568 17.69C25.7235 17.51 25.4035 17.42 24.9968 17.42C24.6168 17.42 24.3168 17.51 24.0968 17.69C23.8835 17.8633 23.7768 18.1067 23.7768 18.42C23.7768 18.7333 23.8801 18.9767 24.0868 19.15C24.3001 19.3167 24.5968 19.4 24.9768 19.4ZM30.1596 20.09C30.0596 20.09 29.9696 20.0633 29.8896 20.01C29.8096 19.9567 29.7529 19.89 29.7196 19.81L27.7996 14.98C27.8396 14.96 27.8963 14.9433 27.9696 14.93C28.0429 14.9167 28.1096 14.91 28.1696 14.91C28.3163 14.91 28.4463 14.9433 28.5596 15.01C28.6729 15.0767 28.7496 15.1733 28.7896 15.3L30.1096 18.89L29.9696 19.29L30.0196 19.31L31.5196 15.3C31.5596 15.1733 31.6363 15.0767 31.7496 15.01C31.8629 14.9433 31.9896 14.91 32.1296 14.91C32.1896 14.91 32.2563 14.9167 32.3296 14.93C32.4029 14.9433 32.4629 14.96 32.5096 14.98L30.5896 19.81C30.5563 19.89 30.4996 19.9567 30.4196 20.01C30.3463 20.0633 30.2596 20.09 30.1596 20.09ZM35.0108 20.09C34.6041 20.09 34.2408 20.0133 33.9208 19.86C33.6008 19.7 33.3508 19.4833 33.1708 19.21C32.9908 18.93 32.9008 18.6167 32.9008 18.27V16.79C32.9008 16.4367 32.9941 16.1167 33.1808 15.83C33.3741 15.5433 33.6308 15.32 33.9508 15.16C34.2774 14.9933 34.6308 14.91 35.0108 14.91C35.3908 14.91 35.7374 14.99 36.0508 15.15C36.3708 15.31 36.6208 15.53 36.8008 15.81C36.9874 16.09 37.0808 16.4067 37.0808 16.76V17.4C37.0808 17.5067 37.0408 17.5967 36.9608 17.67C36.8808 17.7433 36.7841 17.78 36.6708 17.78H33.7508V18.23C33.7508 18.57 33.8574 18.8433 34.0708 19.05C34.2908 19.2567 34.6041 19.36 35.0108 19.36C35.4174 19.36 35.7274 19.27 35.9408 19.09C36.1541 18.91 36.2608 18.6667 36.2608 18.36C36.4608 18.3467 36.6274 18.3867 36.7608 18.48C36.9008 18.5667 36.9708 18.6967 36.9708 18.87C36.9708 19.0833 36.8774 19.2833 36.6908 19.47C36.5108 19.6567 36.2708 19.8067 35.9708 19.92C35.6708 20.0333 35.3508 20.09 35.0108 20.09ZM36.2708 17.1V16.76C36.2708 16.4267 36.1541 16.1567 35.9208 15.95C35.6941 15.7367 35.3908 15.63 35.0108 15.63C34.6308 15.63 34.3241 15.7367 34.0908 15.95C33.8641 16.1567 33.7508 16.4267 33.7508 16.76V17.1H36.2708Z" fill="white"/>
</svg>
