<svg width="87" height="42" viewBox="0 0 87 42" fill="none" xmlns="http://www.w3.org/2000/svg">
<g clip-path="url(#clip0_58_739)">
<path d="M34.0079 1.04785H22.876L9.55786 21.0776L22.5399 41.1076H33.7945L19.9427 21.0776L34.0079 1.04785Z" fill="#FBFCF8"/>
<path d="M31.7905 21.7376H37.4515V41.1074H46.3697V14.2993H31.7905V21.7376Z" fill="#FBFCF8"/>
<path d="M66.0642 1.04785H51.4297V8.54408H57.0866V33.6112H51.4297V41.1074H71.725V33.6112H66.0642V1.04785Z" fill="#FBFCF8"/>
<path d="M71.104 21.7376H76.7689V41.1074H85.6871V14.2993H71.104V21.7376Z" fill="#FBFCF8"/>
<path d="M9.16306 1.04785H0.312012V41.1074H9.16306V1.04785Z" fill="#FBFCF8"/>
<path d="M41.472 0.638672C38.5348 0.638672 36.155 2.9354 36.155 5.77254C36.155 8.60583 38.5348 10.9103 41.472 10.9103C44.4091 10.9103 46.7888 8.60583 46.7888 5.77254C46.7929 2.9354 44.4091 0.638672 41.472 0.638672Z" fill="#FBFCF8"/>
<path d="M80.991 10.9103C83.9282 10.9103 86.308 8.60583 86.308 5.77254C86.308 2.93926 83.9282 0.638672 80.991 0.638672C78.0539 0.638672 75.6741 2.9354 75.6741 5.77254C75.6741 8.60583 78.0539 10.9103 80.991 10.9103Z" fill="#FBFCF8"/>
</g>
<defs>
<clipPath id="clip0_58_739">
<rect width="86" height="40.4688" fill="white" transform="translate(0.310059 0.638672)"/>
</clipPath>
</defs>
</svg>
