<svg width="86" height="42" viewBox="0 0 86 42" fill="none" xmlns="http://www.w3.org/2000/svg">
<g clip-path="url(#clip0_1_572)">
<path d="M33.6979 1.17471H22.5659L9.2478 21.2045L22.2299 41.2344H33.4844L19.6327 21.2045L33.6979 1.17471Z" fill="#081819"/>
<path d="M31.4804 21.8647H37.1414V41.2344H46.0595V14.4264H31.4804V21.8647Z" fill="#081819"/>
<path d="M65.7541 1.17471H51.1196V8.67094H56.7765V33.7381H51.1196V41.2343H71.4149V33.7381H65.7541V1.17471Z" fill="#081819"/>
<path d="M70.7938 21.8647H76.4587V41.2344H85.3769V14.4264H70.7938V21.8647Z" fill="#081819"/>
<path d="M8.85294 1.17471H0.00189209V41.2343H8.85294V1.17471Z" fill="#081819"/>
<path d="M41.1619 0.765625C38.2248 0.765625 35.845 3.06236 35.845 5.8995C35.845 8.73278 38.2248 11.0372 41.1619 11.0372C44.0991 11.0372 46.4788 8.73278 46.4788 5.8995C46.4828 3.06236 44.0991 0.765625 41.1619 0.765625Z" fill="#081819"/>
<path d="M80.681 11.0372C83.6181 11.0372 85.9979 8.73278 85.9979 5.8995C85.9979 3.06621 83.6181 0.765625 80.681 0.765625C77.7438 0.765625 75.364 3.06236 75.364 5.8995C75.364 8.73278 77.7438 11.0372 80.681 11.0372Z" fill="#081819"/>
</g>
<defs>
<clipPath id="clip0_1_572">
<rect width="86" height="40.4688" fill="white" transform="translate(0 0.765625)"/>
</clipPath>
</defs>
</svg>
