<svg width="121" height="162" viewBox="0 0 121 162" fill="none" xmlns="http://www.w3.org/2000/svg">
<g clip-path="url(#clip0_58_642)">
<path d="M1.80423 114.68C9.11834 147.175 41.2433 167.555 73.5541 160.2C105.864 152.844 126.129 120.536 118.816 88.0422C111.501 55.548 79.3767 35.1675 47.0661 42.5232C14.7556 49.8788 -5.50988 82.1862 1.80423 114.68Z" fill="#C5D8BA"/>
<path d="M45.7994 96.6637C45.0859 94.8324 44.7647 93.016 43.8585 91.2993C43.0237 89.6186 41.9391 88.0866 40.6975 86.8184C35.7241 81.5828 28.2318 81.5685 23.2441 86.8048C21.3531 88.7282 19.8404 91.2781 19.0198 93.914C18.7344 94.8187 18.556 95.7303 18.1778 96.6705C18.0422 97.0551 17.6141 97.2473 17.2359 97.0905C15.8802 96.3003 17.0005 91.5918 17.3572 90.2738C19.1625 83.4633 24.4143 77.5152 31.9779 77.5581C39.5201 77.494 44.829 83.4633 46.62 90.2663C47.1266 92.3465 47.7117 94.5051 47.1052 96.6419C46.9197 97.2616 46.0063 97.276 45.7994 96.6637Z" fill="#081819"/>
<path d="M100.13 96.6637C99.4163 94.8324 99.0952 93.016 98.189 91.2993C97.3545 89.6186 96.2698 88.0866 95.0282 86.8184C90.0544 81.5828 82.5627 81.5685 77.5746 86.8048C75.684 88.7282 74.1711 91.2781 73.3502 93.914C73.0652 94.8187 72.8865 95.7303 72.5088 96.6705C72.3731 97.0551 71.945 97.2473 71.5666 97.0905C70.2111 96.3003 71.3313 91.5918 71.6879 90.2738C73.4933 83.4633 78.7446 77.5152 86.3086 77.5581C93.8507 77.494 99.1599 83.4633 100.95 90.2663C101.457 92.3465 102.043 94.5051 101.436 96.6419C101.243 97.2616 100.33 97.276 100.13 96.6637Z" fill="#081819"/>
<path d="M104.083 29.9938C103.834 29.6304 103.612 29.3242 103.356 29.0534C101.921 27.4364 100.273 26.5816 98.4605 26.5103C95.7204 26.4035 93.0804 28.0063 90.5686 30.1219C87.9355 25.3065 83.0906 17.4563 76.8043 14.5286C76.6257 12.826 76.1907 11.0665 75.4203 9.32835C73.8071 5.65976 71.1099 3.12379 67.414 1.79881C62.2693 -0.0533088 55.4478 0.701788 49.6109 3.75778C33.342 11.9783 22.8885 28.1345 15.5888 41.2916C15.0679 42.3531 14.4828 43.4073 13.9191 44.4189C12.4777 47.019 10.9864 49.7188 10.2871 52.7748L10.2585 52.8887L10.28 53.0027C10.4084 53.5442 10.7724 53.6652 10.9293 53.6866C10.9793 53.6937 11.0221 53.6937 11.0649 53.6937C12.0567 53.6795 13.5195 51.7205 16.9017 46.5203C17.8151 45.1099 18.6856 43.7707 19.0352 43.4145C25.0648 35.0301 33.2349 24.3305 42.8892 16.0103C48.2338 11.4939 55.3193 6.365 62.6832 6.79241C66.151 7.21982 68.6342 8.74425 70.0544 11.3443C70.4035 11.9783 70.6824 12.6764 70.8822 13.4244C70.2181 13.4814 69.5335 13.6096 68.8408 13.8091C63.7321 15.4617 58.8229 23.7535 57.6169 30.1433C56.8891 33.9829 57.5242 36.9249 59.4008 38.4565C61.0063 39.7601 62.726 40.1377 64.5384 39.5678C70.1826 37.794 74.8632 27.0659 75.8409 23.5897C75.9977 23.0768 76.1477 22.514 76.2909 21.9299C79.3659 24.6511 82.0992 29.2529 83.8188 32.1522C84.1467 32.7078 84.4392 33.2064 84.7031 33.6339L86.3803 36.4904C86.9796 37.566 88.7918 38.5918 90.2264 38.3069C92.0318 37.965 92.6597 37.217 93.3231 36.4263C93.5018 36.2126 93.6797 35.9917 93.9081 35.7638C94.2647 35.3862 94.5933 35.0016 94.9145 34.6311C96.1703 33.1708 97.2619 31.9028 98.8314 31.8886C100.487 31.8672 101.593 34.1681 102.578 36.1983C102.763 36.5688 102.942 36.9392 103.106 37.2598C104.654 40.5508 105.803 44.2052 106.788 47.7171C106.83 47.8667 107.666 51.1364 107.872 52.3331C108.03 53.2806 108.572 53.6082 109.014 53.6011C109.021 53.6011 109.043 53.6011 109.064 53.594C109.671 53.5584 110.113 52.96 110.141 52.155C110.149 51.2717 108.593 36.4548 104.083 29.9938ZM69.1695 25.8906C66.308 31.7746 64.6383 33.0426 63.8891 33.2706C63.6393 33.3489 63.4396 33.3347 63.254 33.2207C62.9757 33.064 62.7902 32.7719 62.7117 32.316C62.305 30.2003 64.1103 25.8835 66.8289 22.4784C68.1918 20.7688 69.6263 19.8427 71.1242 19.6931C70.8106 21.7376 70.154 23.8461 69.1695 25.8906Z" fill="#C5D8BA"/>
</g>
<defs>
<clipPath id="clip0_58_642">
<rect width="119.998" height="160.906" fill="white" transform="translate(0.311035 0.794922)"/>
</clipPath>
</defs>
</svg>
